<?xml version="1.0" encoding="UTF-8" standalone="no"?>
<!-- Created with Inkscape (http://www.inkscape.org/) -->

<svg
   width="35.454174mm"
   height="35.143768mm"
   viewBox="0 0 35.454174 35.143768"
   version="1.1"
   id="svg5"
   xml:space="preserve"
   inkscape:version="1.2.2 (b0a8486541, 2022-12-01)"
   sodipodi:docname="icons.svg"
   xmlns:inkscape="http://www.inkscape.org/namespaces/inkscape"
   xmlns:sodipodi="http://sodipodi.sourceforge.net/DTD/sodipodi-0.dtd"
   xmlns="http://www.w3.org/2000/svg"
   xmlns:svg="http://www.w3.org/2000/svg"><sodipodi:namedview
     id="namedview7"
     pagecolor="#ffffff"
     bordercolor="#000000"
     borderopacity="0.25"
     inkscape:showpageshadow="2"
     inkscape:pageopacity="0.0"
     inkscape:pagecheckerboard="0"
     inkscape:deskcolor="#d1d1d1"
     inkscape:document-units="mm"
     showgrid="false"
     inkscape:zoom="0.52787981"
     inkscape:cx="498.21947"
     inkscape:cy="448.96583"
     inkscape:window-width="1920"
     inkscape:window-height="1008"
     inkscape:window-x="0"
     inkscape:window-y="0"
     inkscape:window-maximized="1"
     inkscape:current-layer="layer1" /><defs
     id="defs2" /><g
     inkscape:label="Layer 1"
     inkscape:groupmode="layer"
     id="layer1"
     transform="translate(-60.70667,-36.598792)"><path
       id="path405"
       style="fill:#429bdc;fill-opacity:1;stroke-width:0.264583"
       d="M 61.970095,71.340188 C 61.573572,71.125003 61.127087,70.720878 60.977907,70.442134 60.801306,70.112148 60.706672,64.403163 60.706672,54.079013 V 38.222699 l 0.691113,-0.691113 c 0.380111,-0.380111 1.064721,-0.758748 1.521354,-0.841417 0.456631,-0.08267 7.775453,-0.115327 16.264043,-0.07257 l 15.433801,0.07774 0.771927,0.864071 0.771927,0.864068 v 15.619383 c 0,16.948191 0.01852,16.725563 -1.447815,17.393673 -0.513784,0.234095 -4.757206,0.313346 -16.357862,0.305501 -13.307861,-0.009 -15.77256,-0.06944 -16.385065,-0.401839 z M 93.779587,54.15783 V 38.944289 H 78.433755 63.087922 V 54.15783 69.371371 h 15.345833 15.345832 z m -24.341665,9.128124 c -0.291042,-0.291041 -0.529167,-0.7283 -0.529167,-0.971685 0,-0.243384 1.691328,-2.148384 3.758504,-4.233333 l 3.758507,-3.790815 -3.758507,-3.790814 c -2.067176,-2.084949 -3.758504,-3.963459 -3.758504,-4.174464 0,-0.741021 0.808297,-1.559721 1.539902,-1.559721 0.568319,0 1.479317,0.764635 4.413339,3.704283 l 3.697195,3.704285 3.710906,-3.704285 c 3.79332,-3.786555 4.397829,-4.163563 5.272883,-3.288509 0.874985,0.874985 0.49865,1.498444 -3.235018,5.359307 l -3.650792,3.775165 3.650792,3.639436 c 3.06963,3.060081 3.650792,3.765664 3.650792,4.432377 0,0.971714 -0.419576,1.42794 -1.313232,1.42794 -0.519539,0 -1.54237,-0.865796 -4.37143,-3.700282 l -3.693202,-3.70028 -3.732091,3.70028 c -3.911245,3.877907 -4.411125,4.170867 -5.410877,3.171115 z"
       inkscape:label="deselect_all" /></g></svg>
