<?xml version="1.0" encoding="UTF-8" standalone="no"?>
<!-- Created with Inkscape (http://www.inkscape.org/) -->

<svg
   width="33.756393mm"
   height="40.723114mm"
   viewBox="0 0 33.756393 40.723114"
   version="1.1"
   id="svg5"
   xml:space="preserve"
   inkscape:version="1.2.2 (b0a8486541, 2022-12-01)"
   sodipodi:docname="icons.svg"
   xmlns:inkscape="http://www.inkscape.org/namespaces/inkscape"
   xmlns:sodipodi="http://sodipodi.sourceforge.net/DTD/sodipodi-0.dtd"
   xmlns="http://www.w3.org/2000/svg"
   xmlns:svg="http://www.w3.org/2000/svg"><sodipodi:namedview
     id="namedview7"
     pagecolor="#ffffff"
     bordercolor="#000000"
     borderopacity="0.25"
     inkscape:showpageshadow="2"
     inkscape:pageopacity="0.0"
     inkscape:pagecheckerboard="0"
     inkscape:deskcolor="#d1d1d1"
     inkscape:document-units="mm"
     showgrid="false"
     inkscape:zoom="0.74653479"
     inkscape:cx="310.76917"
     inkscape:cy="542.50653"
     inkscape:window-width="1920"
     inkscape:window-height="1008"
     inkscape:window-x="0"
     inkscape:window-y="0"
     inkscape:window-maximized="1"
     inkscape:current-layer="layer1" /><defs
     id="defs2" /><g
     inkscape:groupmode="layer"
     id="layer3"
     inkscape:label="Objects"
     transform="translate(-93.222613,-180.1544)"><path
       style="fill:#429bdc;fill-opacity:1;stroke-width:0.264583"
       d="m 102.79369,220.22802 -0.64944,-0.64943 v -9.01349 -9.01348 l -3.770307,0.0332 c -2.073672,0.0182 -3.967771,-0.0473 -4.209108,-0.14568 -0.24134,-0.0984 -0.582914,-0.52677 -0.759058,-0.95202 -0.264134,-0.63767 -0.248907,-0.88207 0.08688,-1.39454 0.223925,-0.34175 3.424372,-4.24175 7.112103,-8.66666 3.68773,-4.42492 7.04635,-8.49337 7.4636,-9.041 0.81273,-1.06669 1.61566,-1.41045 2.674,-1.14483 0.59188,0.14856 6.08084,6.50846 14.38672,16.66949 1.98871,2.4329 2.22407,3.11888 1.4135,4.11989 -0.451,0.55697 -0.64965,0.58193 -4.36562,0.54871 l -3.89312,-0.0348 v 8.89366 8.89367 l -0.7734,0.77339 -0.7734,0.7734 h -6.64696 -6.64696 z m 10.68883,-2.43097 1.62632,-0.16998 v -9.04943 c 0,-8.36496 0.0359,-9.0819 0.47437,-9.47872 0.3715,-0.33621 1.17086,-0.44551 3.68631,-0.50403 l 3.21195,-0.0747 -5.94855,-7.14375 c -3.27171,-3.92906 -6.04985,-7.24507 -6.17365,-7.3689 -0.18297,-0.183 -8.0348,8.96008 -11.611008,13.52046 l -0.881806,1.12448 h 3.314524 c 3.12519,0 3.33804,0.0336 3.7264,0.58804 0.35302,0.50401 0.41187,1.86366 0.41187,9.51542 v 8.92738 l 2.57969,0.0865 c 1.41883,0.0476 2.88965,0.11141 3.26848,0.14187 0.37884,0.0305 1.42063,-0.0211 2.3151,-0.11461 z"
       id="path369"
       inkscape:label="path_up" /></g></svg>
