<?xml version="1.0" encoding="UTF-8" standalone="no"?>
<!-- Created with Inkscape (http://www.inkscape.org/) -->

<svg
   width="210mm"
   height="297mm"
   viewBox="0 0 210 297"
   version="1.1"
   id="svg5"
   xml:space="preserve"
   inkscape:version="1.2.2 (b0a8486541, 2022-12-01)"
   sodipodi:docname="all_icons.svg"
   xmlns:inkscape="http://www.inkscape.org/namespaces/inkscape"
   xmlns:sodipodi="http://sodipodi.sourceforge.net/DTD/sodipodi-0.dtd"
   xmlns="http://www.w3.org/2000/svg"
   xmlns:svg="http://www.w3.org/2000/svg"><sodipodi:namedview
     id="namedview7"
     pagecolor="#ffffff"
     bordercolor="#000000"
     borderopacity="0.25"
     inkscape:showpageshadow="2"
     inkscape:pageopacity="0.0"
     inkscape:pagecheckerboard="0"
     inkscape:deskcolor="#d1d1d1"
     inkscape:document-units="mm"
     showgrid="false"
     inkscape:zoom="1"
     inkscape:cx="145"
     inkscape:cy="731"
     inkscape:window-width="1920"
     inkscape:window-height="1008"
     inkscape:window-x="0"
     inkscape:window-y="0"
     inkscape:window-maximized="1"
     inkscape:current-layer="layer3" /><defs
     id="defs2" /><g
     inkscape:groupmode="layer"
     id="layer2"
     inkscape:label="Outlines"><path
       id="rect1930"
       style="fill:#6eb2e4;fill-opacity:1;stroke-width:0.264583"
       d="m 34.557015,92.967638 c -4.431995,0 -8.000028,3.568033 -8.000028,8.000032 v 51.73327 c 0,4.432 3.568033,8.00003 8.000028,8.00003 h 51.733277 c 4.431995,0 8.000028,-3.56803 8.000028,-8.00003 v -51.73327 c 0,-4.431999 -3.568033,-8.000032 -8.000028,-8.000032 z m 0.463021,2.462899 h 50.807235 c 3.323997,0 6.000151,2.676153 6.000151,6.000153 v 50.80723 c 0,3.324 -2.676154,6.00015 -6.000151,6.00015 H 35.020036 c -3.323997,0 -6.00015,-2.67615 -6.00015,-6.00015 v -50.80723 c 0,-3.324 2.676153,-6.000153 6.00015,-6.000153 z"
       inkscape:label="Outline"
       inkscape:export-filename="./boxed_upload_folder.svg"
       inkscape:export-xdpi="9"
       inkscape:export-ydpi="9" /><path
       id="rect1930-3"
       style="fill:#6eb2e4;fill-opacity:1;stroke-width:0.264583"
       d="m -54.595731,86.243994 c -4.431995,0 -8.000028,3.568033 -8.000028,8.000032 V 145.9773 c 0,4.432 3.568033,8.00003 8.000028,8.00003 h 51.7332767 c 4.431995,0 8.000028,-3.56803 8.000028,-8.00003 V 94.244026 c 0,-4.431999 -3.568033,-8.000032 -8.000028,-8.000032 z m 0.463021,2.462899 h 50.8072347 c 3.32399697,0 6.000151,2.676153 6.000151,6.000153 v 50.807234 c 0,3.324 -2.67615403,6.00015 -6.000151,6.00015 H -54.13271 c -3.323997,0 -6.00015,-2.67615 -6.00015,-6.00015 V 94.707046 c 0,-3.324 2.676153,-6.000153 6.00015,-6.000153 z"
       inkscape:label="Outline"
       inkscape:export-filename="./boxed_upload_file.svg"
       inkscape:export-xdpi="9"
       inkscape:export-ydpi="9" /><path
       id="rect1930-6"
       style="fill:#6eb2e4;fill-opacity:1;stroke-width:0.264583"
       d="m -51.351388,-24.057655 c -4.431995,0 -8.000028,3.568033 -8.000028,8.000036 v 51.73327 c 0,4.432 3.568033,8.00003 8.000028,8.00003 H 0.38188933 c 4.43199497,0 8.00002797,-3.56803 8.00002797,-8.00003 v -51.73327 c 0,-4.432003 -3.568033,-8.000036 -8.00002797,-8.000036 z m 0.463021,2.462899 h 50.80723533 c 3.32399697,0 6.00015097,2.676157 6.00015097,6.000157 v 50.80723 c 0,3.324 -2.676154,6.00015 -6.00015097,6.00015 H -50.888367 c -3.323997,0 -6.00015,-2.67615 -6.00015,-6.00015 v -50.80723 c 0,-3.324 2.676153,-6.000157 6.00015,-6.000157 z"
       inkscape:label="Outline"
       inkscape:export-filename="boxed_select_all.svg"
       inkscape:export-xdpi="9"
       inkscape:export-ydpi="9" /><path
       id="rect1930-7"
       style="fill:#6eb2e4;fill-opacity:1;stroke-width:0.264583"
       d="m 41.827744,-17.574799 c -4.431995,0 -8.000028,3.568033 -8.000028,8.0000323 V 42.158503 c 0,4.432 3.568033,8.00003 8.000028,8.00003 h 51.733277 c 4.431995,0 8.000029,-3.56803 8.000029,-8.00003 V -9.5747667 c 0,-4.4319993 -3.568034,-8.0000323 -8.000029,-8.0000323 z m 0.463021,2.462899 H 93.098 c 3.323997,0 6.000151,2.676153 6.000151,6.0001533 V 41.695483 c 0,3.324 -2.676154,6.00015 -6.000151,6.00015 H 42.290765 c -3.323997,0 -6.00015,-2.67615 -6.00015,-6.00015 V -9.1117467 c 0,-3.3240003 2.676153,-6.0001533 6.00015,-6.0001533 z"
       inkscape:label="Outline"
       inkscape:export-filename="boxed_deselect_all.svg"
       inkscape:export-xdpi="9"
       inkscape:export-ydpi="9" /><path
       id="rect1930-5"
       style="fill:#6eb2e4;fill-opacity:1;stroke-width:0.264583"
       d="m 140.05967,-19.443305 c -4.432,0 -8.00003,3.568033 -8.00003,8.000032 v 51.73327 c 0,4.432 3.56803,8.00003 8.00003,8.00003 h 51.73328 c 4.43199,0 8.00003,-3.56803 8.00003,-8.00003 v -51.73327 c 0,-4.431999 -3.56804,-8.000032 -8.00003,-8.000032 z m 0.46302,2.462899 h 50.80724 c 3.32399,0 6.00015,2.676153 6.00015,6.000153 v 50.80723 c 0,3.324 -2.67616,6.00015 -6.00015,6.00015 h -50.80724 c -3.324,0 -6.00015,-2.67615 -6.00015,-6.00015 v -50.80723 c 0,-3.324 2.67615,-6.000153 6.00015,-6.000153 z"
       inkscape:label="Outline"
       inkscape:export-filename="boxed_download.svg"
       inkscape:export-xdpi="9"
       inkscape:export-ydpi="9" /><path
       id="rect1930-35"
       style="fill:#6eb2e4;fill-opacity:1;stroke-width:0.264583"
       d="m 237.4056,-14.696179 c -4.43199,0 -8.00002,3.568033 -8.00002,8.0000322 V 45.037123 c 0,4.432 3.56803,8.00003 8.00002,8.00003 h 51.73328 c 4.432,0 8.00003,-3.56803 8.00003,-8.00003 V -6.6961468 c 0,-4.4319992 -3.56803,-8.0000322 -8.00003,-8.0000322 z m 0.46303,2.462899 h 50.80723 c 3.324,0 6.00015,2.6761532 6.00015,6.0001532 V 44.574103 c 0,3.324 -2.67615,6.00015 -6.00015,6.00015 h -50.80723 c -3.324,0 -6.00015,-2.67615 -6.00015,-6.00015 V -6.2331268 c 0,-3.324 2.67615,-6.0001532 6.00015,-6.0001532 z"
       inkscape:label="Outline"
       inkscape:export-filename="./boxed_delete.svg"
       inkscape:export-xdpi="9.0000019"
       inkscape:export-ydpi="9.0000019" /><path
       id="rect1930-62"
       style="fill:#6eb2e4;fill-opacity:1;stroke-width:0.264583"
       d="m 244.47357,79.585598 c -4.43199,0 -8.00002,3.568033 -8.00002,8.000032 v 51.73327 c 0,4.432 3.56803,8.00003 8.00002,8.00003 h 51.73328 c 4.432,0 8.00003,-3.56803 8.00003,-8.00003 V 87.58563 c 0,-4.431999 -3.56803,-8.000032 -8.00003,-8.000032 z m 0.46303,2.462899 h 50.80723 c 3.324,0 6.00015,2.676153 6.00015,6.000153 v 50.80723 c 0,3.324 -2.67615,6.00015 -6.00015,6.00015 H 244.9366 c -3.324,0 -6.00015,-2.67615 -6.00015,-6.00015 V 88.04865 c 0,-3.324 2.67615,-6.000153 6.00015,-6.000153 z"
       inkscape:label="Outline"
       inkscape:export-filename="boxed_new_folder.svg"
       inkscape:export-xdpi="9"
       inkscape:export-ydpi="9" /><path
       id="rect1930-9"
       style="fill:#6eb2e4;fill-opacity:1;stroke-width:0.264583"
       d="m 142.09636,86.860557 c -4.43199,0 -8.00002,3.56803 -8.00002,8.00003 v 51.733273 c 0,4.432 3.56803,8.00003 8.00002,8.00003 h 51.73328 c 4.432,0 8.00003,-3.56803 8.00003,-8.00003 V 94.860587 c 0,-4.432 -3.56803,-8.00003 -8.00003,-8.00003 z m 0.46303,2.4629 h 50.80723 c 3.324,0 6.00015,2.67615 6.00015,6.00015 v 50.807233 c 0,3.324 -2.67615,6.00015 -6.00015,6.00015 h -50.80723 c -3.324,0 -6.00015,-2.67615 -6.00015,-6.00015 V 95.323607 c 0,-3.324 2.67615,-6.00015 6.00015,-6.00015 z"
       inkscape:label="Outline"
       inkscape:export-filename="boxed_rename.svg"
       inkscape:export-xdpi="9"
       inkscape:export-ydpi="9" /><path
       id="rect1930-1"
       style="fill:#6eb2e4;fill-opacity:1;stroke-width:0.264583"
       d="m 83.915157,167.48177 c -4.43199,0 -8.00002,3.56803 -8.00002,8.00003 v 51.73327 c 0,4.432 3.56803,8.00003 8.00002,8.00003 h 51.733283 c 4.432,0 8.00003,-3.56803 8.00003,-8.00003 V 175.4818 c 0,-4.432 -3.56803,-8.00003 -8.00003,-8.00003 z m 0.46303,2.4629 h 50.807233 c 3.324,0 6.00015,2.67615 6.00015,6.00015 v 50.80723 c 0,3.324 -2.67615,6.00015 -6.00015,6.00015 H 84.378187 c -3.324,0 -6.00015,-2.67615 -6.00015,-6.00015 v -50.80723 c 0,-3.324 2.67615,-6.00015 6.00015,-6.00015 z"
       inkscape:label="Outline"
       inkscape:export-filename="boxed_up.svg"
       inkscape:export-xdpi="9"
       inkscape:export-ydpi="9" /><path
       id="rect1930-1-3"
       style="fill:#6eb2e4;fill-opacity:1;stroke-width:0.264583"
       d="m -12.265104,173.50271 c -4.43199,0 -8.00002,3.56803 -8.00002,8.00003 v 51.73327 c 0,4.432 3.56803,8.00003 8.00002,8.00003 h 51.733283 c 4.432,0 8.00003,-3.56803 8.00003,-8.00003 v -51.73327 c 0,-4.432 -3.56803,-8.00003 -8.00003,-8.00003 z m 0.46303,2.4629 h 50.807233 c 3.324,0 6.00015,2.67615 6.00015,6.00015 v 50.80723 c 0,3.324 -2.67615,6.00015 -6.00015,6.00015 h -50.807233 c -3.324,0 -6.00015,-2.67615 -6.00015,-6.00015 v -50.80723 c 0,-3.324 2.67615,-6.00015 6.00015,-6.00015 z"
       inkscape:label="Outline"
       inkscape:export-filename="boxed_share.svg"
       inkscape:export-xdpi="9"
       inkscape:export-ydpi="9" /></g><g
     inkscape:groupmode="layer"
     id="layer3"
     inkscape:label="Objects"><path
       id="path409"
       style="fill:#429bdc;fill-opacity:1;stroke-width:0.264583"
       d="m 149.12854,30.918247 c -1.14013,-0.623599 -1.19063,-0.896713 -1.19063,-6.439005 0,-3.785368 0.0916,-5.412079 0.3175,-5.637972 0.48607,-0.486071 1.4837,-0.377788 1.78986,0.194273 0.15897,0.297034 0.27389,2.460945 0.27389,5.157136 v 4.645366 l 15.01511,-0.0069 c 8.2583,-0.0038 15.40205,-0.07558 15.875,-0.159501 l 0.85989,-0.15258 v -4.485865 c 0,-2.586246 0.11599,-4.702585 0.27389,-4.997637 0.36949,-0.690391 1.72856,-0.690391 2.09805,0 0.15989,0.298751 0.27389,2.506821 0.27389,5.304805 0,5.067446 -0.18666,6.010738 -1.30826,6.610996 -0.72944,0.390384 -33.5619,0.358685 -34.27819,-0.0331 z m 2.56646,-4.245311 c -0.5031,-0.503097 -0.38576,-1.744022 0.19427,-2.054442 0.33416,-0.178834 5.33862,-0.273891 14.41979,-0.273891 13.55524,0 13.92144,0.01341 14.43718,0.529167 0.63699,0.636987 0.64734,0.771879 0.11729,1.528627 l -0.41188,0.588039 h -14.21957 c -10.7069,0 -14.29802,-0.07843 -14.53708,-0.3175 z m 12.61714,-5.040312 c -5.69701,-6.455595 -8.43673,-9.818314 -8.43673,-10.355199 0,-1.143047 0.75098,-1.4849051 3.26198,-1.4849051 h 2.29427 v -6.194189 -6.194186 l 0.81405,-0.68498 c 0.77681,-0.653637 0.95932,-0.684977 3.98911,-0.684977 3.15648,0 3.17957,0.0045 3.94844,0.773398 l 0.7734,0.773395 v 6.125985 6.125985 l 2.05052,-0.0752 c 1.12779,-0.04136 2.31814,0.01701 2.64522,0.129709 0.67624,0.2330081 1.03914,1.2866111 0.69499,2.0177391 -0.12725,0.270315 -2.2327,2.822573 -4.67879,5.67169 -4.25711,4.958527 -4.48845,5.180211 -5.40578,5.180211 -0.79541,0 -1.12705,-0.191177 -1.95068,-1.124479 z m 6.69528,-9.404802 c -1.10553,-0.04303 -2.16453,-0.206439 -2.35333,-0.363127 -0.26412,-0.2192 -0.34326,-1.772007 -0.34326,-6.7347781 v -6.449896 h -2.11667 -2.11666 v 6.235102 c 0,3.79204 -0.10732,6.4356261 -0.2739,6.7468741 -0.23649,0.441889 -0.56918,0.511773 -2.43633,0.511773 h -2.16245 l 1.06465,1.124479 c 0.58557,0.618464 1.70386,1.898386 2.48511,2.844271 0.78124,0.945885 1.89024,2.216333 2.46444,2.823213 l 1.04399,1.103423 3.37724,-3.881548 3.37724,-3.881546 z"
       inkscape:label="download"
       inkscape:export-filename="download.svg"
       inkscape:export-xdpi="17.193979"
       inkscape:export-ydpi="17.193979" /><path
       id="path405"
       style="fill:#429bdc;fill-opacity:1;stroke-width:0.264583"
       d="M 52.580439,33.248057 C 52.183916,33.032872 51.737431,32.628747 51.588251,32.350003 51.41165,32.020017 51.317016,26.311032 51.317016,15.986882 V 0.13056825 l 0.691113,-0.691113 c 0.380111,-0.380111 1.064721,-0.75874795 1.521354,-0.84141695 0.456631,-0.08267 7.775453,-0.115327 16.264043,-0.07257 l 15.4338,0.07774 0.77193,0.86407095 0.77193,0.864068 V 15.95073 c 0,16.948191 0.0185,16.725563 -1.44782,17.393673 -0.51378,0.234095 -4.75721,0.313346 -16.357862,0.305501 -13.307861,-0.009 -15.77256,-0.06944 -16.385065,-0.401839 z M 84.389936,16.065699 V 0.85215825 H 69.044099 53.698266 V 16.065699 31.27924 h 15.345833 15.345837 z m -24.34167,9.128124 c -0.291042,-0.291041 -0.529167,-0.7283 -0.529167,-0.971685 0,-0.243384 1.691328,-2.148384 3.758504,-4.233333 L 67.03611,16.19799 63.277603,12.407176 c -2.067176,-2.084949 -3.758504,-3.9634587 -3.758504,-4.1744637 0,-0.741021 0.808297,-1.559721 1.539902,-1.559721 0.568319,0 1.479317,0.764635 4.413339,3.7042827 l 3.697195,3.704285 3.710911,-3.704285 c 3.79332,-3.7865547 4.39782,-4.1635627 5.27288,-3.2885087 0.87498,0.874985 0.49865,1.498444 -3.23502,5.3593067 l -3.65079,3.775165 3.65079,3.639436 c 3.06963,3.060081 3.65079,3.765664 3.65079,4.432377 0,0.971714 -0.41957,1.42794 -1.31323,1.42794 -0.51954,0 -1.54237,-0.865796 -4.37143,-3.700282 l -3.693202,-3.70028 -3.732091,3.70028 c -3.911245,3.877907 -4.411125,4.170867 -5.410877,3.171115 z"
       inkscape:label="deselect_all"
       inkscape:export-filename="deselect_all.svg"
       inkscape:export-xdpi="17.193979"
       inkscape:export-ydpi="17.193979" /><path
       id="path401"
       style="fill:#429bdc;fill-opacity:1;stroke-width:0.264583"
       d="m -40.921996,27.426306 c -1.456976,-0.587962 -1.417373,-0.102031 -1.417373,-17.391308 0,-15.6997102 0.0084,-15.9568342 0.539732,-16.4881492 0.296854,-0.296855 0.840385,-0.654043 1.207849,-0.79375 0.399209,-0.151779 6.864321,-0.253622 16.062872,-0.253029 14.9197136,0.0011 15.4214926,0.0173 16.2612456,0.529288 0.476568,0.290563 0.982583,0.833652 1.124479,1.20686 0.156927,0.412755 0.257988,6.74527402 0.257988,16.1659192 v 15.487358 l -0.899584,0.899583 -0.899583,0.899584 -15.8353116,-0.01678 c -8.709421,-0.0092 -16.090463,-0.119732 -16.402314,-0.245579 z M -9.2664534,10.093871 V -5.1196702 H -24.744578 -40.222702 V 10.093871 25.307412 h 15.478124 15.4781246 z m -22.5539156,4.678648 c -4.26557,-4.26557 -4.553643,-4.7910172 -3.207277,-5.8500702 0.383427,-0.301603 0.859714,-0.54837 1.058413,-0.54837 0.1987,0 1.732902,1.398985 3.409336,3.1088542 l 3.048064,3.108854 0.854461,-0.972984 c 0.469953,-0.535141 3.175315,-3.422406 6.011915,-6.4161452 5.44277,-5.744284 5.941163,-6.098781 6.972371,-4.959308 0.987499,1.091174 0.71355,1.479423 -6.314585,8.9492592 -3.713858,3.947265 -7.017028,7.246027 -7.340375,7.330585 -0.48868,0.127794 -1.246899,-0.505251 -4.492323,-3.750675 z"
       inkscape:label="select_all"
       inkscape:export-filename="select_all.svg"
       inkscape:export-xdpi="17.193979"
       inkscape:export-ydpi="17.193979" /><path
       id="path393"
       style="fill:#429bdc;fill-opacity:1;stroke-width:0.264583"
       d="m 251.11742,38.810999 c -0.89517,-0.441216 -1.72306,-1.410827 -1.99633,-2.338102 -0.0858,-0.291041 -0.34105,-3.505729 -0.56727,-7.143749 -0.22622,-3.638021 -0.5264,-8.400521 -0.66706,-10.583333 -0.14066,-2.182812 -0.2582,-4.23664 -0.2612,-4.564062 -0.003,-0.347517 -0.16891,-0.595313 -0.39815,-0.595313 -0.21598,0 -0.78153,-0.347422 -1.25677,-0.772046 -0.84988,-0.759365 -0.86407,-0.809718 -0.86407,-3.0656164 0,-2.185016 0.0351,-2.323793 0.74236,-2.93212 0.71732,-0.617014 0.88401,-0.638551 4.94204,-0.638551 4.64314,0 5.03123,-0.124923 5.03123,-1.619538 0,-1.168887 0.65385,-2.222532 1.68197,-2.71041 0.75334,-0.357481 1.86888,-0.43238 6.4278,-0.431562 4.99538,7.94e-4 5.59587,0.04953 6.35928,0.515009 1.04546,0.63746 1.47236,1.390057 1.65839,2.923585 l 0.14443,1.190625 4.72041,0.132291 c 4.56532,0.127945 4.73701,0.152816 5.22552,0.756915 0.40205,0.497178 0.50511,1.052425 0.50511,2.72129 0,2.3528864 -0.34509,3.1509224 -1.58455,3.6643234 -0.96269,0.398758 -0.81602,-0.900724 -1.97545,17.50249 -0.19845,3.150021 -0.48612,5.961425 -0.63926,6.247567 -0.15314,0.286141 -0.70385,0.893775 -1.22379,1.350295 l -0.94536,0.830035 -12.09548,-0.006 c -10.59985,-0.0053 -12.20285,-0.05894 -12.9638,-0.433999 z m 24.54853,-2.470393 c 0.29104,-0.291042 0.52916,-0.710065 0.52916,-0.931164 0,-0.221102 0.17042,-2.870242 0.37871,-5.886979 0.2083,-3.016739 0.4431,-6.556544 0.52179,-7.866232 0.0787,-1.309687 0.22345,-3.661171 0.32171,-5.22552 l 0.17864,-2.844271 h -13.76697 -13.76697 l 0.0974,1.521354 c 0.0536,0.836745 0.21731,3.307292 0.36385,5.490104 0.14655,2.182813 0.39027,5.933281 0.54162,8.334375 0.3865,6.131734 0.50839,7.090388 0.95879,7.540783 0.34024,0.340244 2.01354,0.396716 11.75489,0.396716 11.00541,0 11.37462,-0.01643 11.88736,-0.529166 z m 4.49791,-26.4583354 v -1.322917 h -16.27187 -16.27188 v 1.322917 1.3229164 h 16.27188 16.27187 z m -10.58694,-4.188536 c -0.002,-0.24292 -0.0754,-0.70956 -0.16316,-1.036982 -0.15898,-0.593264 -0.17855,-0.595312 -5.68492,-0.595312 h -5.52539 v 0.909277 c 0,1.130208 -0.0245,1.125921 6.54843,1.148268 4.34134,0.01476 4.82828,-0.02816 4.82504,-0.425251 z M 256.14565,34.605812 c -0.58761,-0.411578 -0.58804,-0.41829 -0.58804,-9.207499 0,-9.292876 0.0179,-9.430623 1.22854,-9.430623 1.34402,0 1.4173,0.495525 1.4173,9.583872 0,8.055017 -0.0222,8.429998 -0.52917,8.936961 -0.63699,0.636987 -0.77188,0.647337 -1.52863,0.117289 z m 6.9936,-0.07198 c -0.38895,-0.429776 -0.43789,-1.465424 -0.43789,-9.266089 v -8.782235 l 0.65062,-0.296441 c 0.52102,-0.23739 0.78455,-0.208693 1.32292,0.144063 l 0.6723,0.440507 v 8.710146 c 0,8.700884 -5.3e-4,8.710586 -0.58804,9.122026 -0.76189,0.533644 -1.08482,0.519295 -1.61991,-0.07198 z m 7.16888,0.198078 c -0.4265,-0.248412 -0.46302,-0.974037 -0.46302,-9.199454 0,-9.38803 0.022,-9.564769 1.19063,-9.564769 1.16733,0 1.19062,0.18438 1.19062,9.426725 0,7.639701 -0.0545,8.846209 -0.41577,9.2075 -0.47833,0.47833 -0.8493,0.510426 -1.50246,0.129998 z"
       inkscape:label="delete"
       inkscape:export-filename="./delete.svg"
       inkscape:export-xdpi="17.193979"
       inkscape:export-ydpi="17.193979" /><path
       id="path387"
       style="fill:#429bdc;fill-opacity:1;stroke-width:0.264583"
       d="m 249.90074,132.62934 c -0.47204,-0.2327 -1.09712,-0.80959 -1.38906,-1.28197 -0.51545,-0.834 -0.53082,-1.30473 -0.53082,-16.25276 0,-16.991538 -0.0583,-16.385368 1.67846,-17.458738 0.846,-0.52285 1.26193,-0.55471 7.24333,-0.55471 6.14409,0 6.37371,0.0189 7.22441,0.59532 0.64771,0.43884 1.01148,0.99516 1.3841,2.11666 l 0.50546,1.521358 10.75972,0.001 c 10.20497,0.001 10.8034,0.0276 11.60678,0.51747 0.97721,0.59584 1.58063,1.62954 1.81808,3.1145 0.14069,0.87979 0.30515,1.09273 1.05281,1.36308 0.48734,0.17623 1.18963,0.68116 1.56063,1.12207 0.77356,0.91932 0.8224,1.77974 0.32108,5.65585 -0.26672,2.06219 -0.37889,2.39011 -0.83715,2.44736 -0.29105,0.0364 -0.81072,-0.15305 -1.15484,-0.42091 l -0.62566,-0.48701 0.32419,-2.85269 c 0.27037,-2.37907 0.26443,-2.89056 -0.0358,-3.08077 -0.19799,-0.12545 -8.36134,-0.22991 -18.14077,-0.23214 -17.79825,-0.004 -19.12155,0.0581 -19.13227,0.89832 -0.002,0.15854 -0.64355,4.9317 -1.42562,10.60701 -0.78207,5.67531 -1.3687,10.40804 -1.30362,10.51719 0.0651,0.10914 8.38339,0.19843 18.48514,0.19843 h 18.36683 l 0.38156,-0.59531 c 0.20986,-0.32742 0.52586,-1.76326 0.70221,-3.19075 0.18737,-1.51663 0.4789,-2.75369 0.70137,-2.97617 0.50197,-0.50197 1.64196,-0.77661 1.94903,-0.46955 0.14847,0.14847 0.0559,1.61096 -0.23693,3.74392 -0.52557,3.82801 -0.84131,4.52664 -2.4311,5.37925 -0.86437,0.46357 -1.90763,0.48954 -19.43836,0.48384 -16.43479,-0.005 -18.62179,-0.0538 -19.3832,-0.42913 z m 1.60171,-24.60702 c 0.26037,-0.5011 0.8904,-1.05436 1.58181,-1.38906 1.13057,-0.5473 1.4184,-0.55626 17.86659,-0.55626 h 16.71751 l -0.004,-0.72761 c -0.009,-1.58339 0.5305,-1.5095 -12.07067,-1.65364 l -11.56518,-0.1323 -0.62342,-2.05052 -0.62343,-2.050518 h -5.89225 c -4.23008,0 -5.98181,0.0896 -6.20975,0.3175 -0.23232,0.232328 -0.3093,2.166568 -0.28695,7.209898 0.0297,6.69344 0.0399,6.81984 0.35381,4.37885 0.17779,-1.38245 0.51798,-2.8883 0.75598,-3.34634 z m 32.21636,18.25962 c -0.45551,-0.57909 -0.54837,-1.07194 -0.54837,-2.91042 v -2.21328 h -2.38125 c -2.02847,0 -2.45964,-0.0784 -2.91041,-0.52916 -0.66697,-0.66697 -0.67617,-1.61186 -0.0236,-2.41809 0.45186,-0.55821 0.76131,-0.63445 2.91041,-0.71709 l 2.4048,-0.0925 v -2.23466 c 0,-2.01983 0.0624,-2.2971 0.64943,-2.88409 0.35719,-0.35719 0.89838,-0.64943 1.20265,-0.64943 0.30428,0 0.84547,0.29224 1.20266,0.64943 0.58819,0.58819 0.64943,0.86264 0.64943,2.91041 v 2.26099 h 2.13406 c 2.89887,0 3.67502,0.42899 3.68272,2.03552 0.006,1.31338 -0.73769,1.66864 -3.4944,1.66864 h -2.32238 v 2.33136 c 0,1.98049 -0.0812,2.41851 -0.53948,2.91042 -0.7564,0.81191 -1.92632,0.75911 -2.61632,-0.11808 z"
       inkscape:label="new_folder"
       inkscape:export-filename="new_folder.svg"
       inkscape:export-xdpi="16.228992"
       inkscape:export-ydpi="16.228992" /><path
       id="path385"
       style="fill:#429bdc;fill-opacity:1;stroke-width:0.264583"
       d="m 57.90104,146.06849 c -0.41519,-0.24183 -0.46302,-0.78757 -0.46302,-5.28362 v -5.01394 h -2.207946 c -1.88291,0 -2.279518,-0.0791 -2.694091,-0.53717 -0.374708,-0.41405 -0.429593,-0.68459 -0.239445,-1.18026 0.135681,-0.3537 2.183312,-2.96947 4.550292,-5.81283 3.67903,-4.41947 4.40859,-5.16915 5.02708,-5.16568 0.39792,0.002 0.86063,0.0915 1.02825,0.19843 0.16762,0.10692 2.22145,2.51292 4.56407,5.34667 5.39116,6.52145 5.51142,7.15084 1.36627,7.15084 h -1.86948 v 4.7625 c 0,6.18128 0.29702,5.82373 -4.82864,5.81279 -2.07367,-0.004 -3.97867,-0.1294 -4.23334,-0.27773 z m 6.35632,-7.241 c 0.0864,-5.66112 0.13209,-5.76971 2.35103,-5.58636 1.7236,0.14243 1.72761,0.15447 -1.01233,-3.03893 -1.06718,-1.24379 -2.30465,-2.71702 -2.74994,-3.27384 l -0.80961,-1.0124 -3.06344,3.67072 -3.063446,3.67071 1.624096,0.0726 c 2.5084,0.11218 2.55014,0.20693 2.55014,5.78864 v 4.61202 l 2.05052,-0.0773 2.05052,-0.0773 z m -24.017252,4.94668 c -0.57355,-0.28652 -1.127463,-0.86546 -1.455208,-1.52094 -0.510776,-1.02156 -0.529167,-1.5875 -0.529167,-16.28351 0,-16.93882 -0.09377,-16.04303 1.800312,-17.19793 0.776198,-0.47327 1.368367,-0.51562 7.22254,-0.51653 6.177307,-0.001 6.404533,0.0177 7.255642,0.59432 0.637638,0.43203 1.011262,0.99445 1.3622,2.05052 l 0.483571,1.45521 10.649322,-0.009 c 9.39602,-0.008 10.77904,0.0441 11.75149,0.43827 1.29575,0.52525 1.88237,1.31678 2.15366,2.90595 0.18136,1.06234 0.2713,1.16756 1.11655,1.30608 1.82868,0.29971 2.90367,1.49393 2.90367,3.22574 0,2.03426 -2.97988,21.27254 -3.41222,22.02948 -0.24907,0.43607 -0.85097,1.06115 -1.33757,1.38907 -0.84362,0.56852 -1.12718,0.59621 -6.10486,0.59621 -5.78809,0 -6.1595,-0.10096 -5.65519,-1.53717 l 0.24994,-0.71178 4.8888,-0.13229 c 2.89632,-0.0784 5.09349,-0.25335 5.39101,-0.42932 0.35112,-0.20767 0.56818,-0.76485 0.72151,-1.85208 0.12061,-0.85528 0.80541,-5.59479 1.52178,-10.53224 0.71637,-4.93746 1.24216,-9.13441 1.16842,-9.32657 -0.19324,-0.50358 -37.052147,-0.51786 -37.740368,-0.0146 -0.37084,0.27117 -0.74593,2.3584 -1.974554,10.98768 -0.981765,6.89547 -1.426059,10.74362 -1.259639,10.91004 0.153033,0.15304 2.998949,0.25712 7.030442,0.25712 7.113653,0 7.408333,0.0474 7.408333,1.19063 0,1.14698 -0.281001,1.19064 -7.659687,1.19021 -6.157788,-2.6e-4 -7.138969,-0.0575 -7.950729,-0.46302 z m 1.949254,-25.31698 c 0.941713,-1.43723 0.969677,-1.43968 16.992118,-1.48651 8.13615,-0.0238 15.77527,-0.10607 16.97581,-0.18287 2.04284,-0.13069 2.18282,-0.17765 2.18282,-0.73232 0,-0.32597 -0.15951,-0.72505 -0.35446,-0.88685 -0.24531,-0.20359 -3.9317,-0.3154 -11.97239,-0.36312 l -11.617944,-0.069 -0.661459,-1.98437 -0.661458,-1.98438 -5.688541,-0.065 c -3.296698,-0.0377 -5.855414,0.0416 -6.085417,0.18857 -0.334012,0.21338 -0.405185,1.35522 -0.449336,7.20873 l -0.05246,6.95518 0.459783,-2.93799 c 0.261,-1.66779 0.664344,-3.2502 0.932936,-3.66013 z"
       inkscape:label="upload_folder"
       inkscape:export-filename="./upload_folder.svg"
       inkscape:export-xdpi="16.228992"
       inkscape:export-ydpi="16.228992" /><path
       id="path381"
       style="fill:#429bdc;fill-opacity:1;stroke-width:0.264583"
       d="m -45.685348,141.709 c -1.366876,-0.7576 -1.332612,-0.22331 -1.342663,-20.937 -0.0085,-17.44461 0.03254,-19.38171 0.422078,-19.93784 0.916461,-1.30843 1.369628,-1.353841 13.510553,-1.353841 h 11.313167 l 6.157829,6.157821 6.1578284,6.15783 v 14.23249 c 0,9.25552 -0.09527,14.41048 -0.272426,14.74151 -0.7034214,1.31435 -0.6258874,1.30893 -18.5659954,1.29888 -13.393335,-0.007 -16.874694,-0.0796 -17.380371,-0.35985 z m 30.86098,-1.92209 2.976562,-0.16186 v -12.9129 -12.91289 l -5.153983,-0.0819 -5.153981,-0.0819 -0.694891,-0.69551 c -0.686562,-0.68717 -0.695762,-0.74744 -0.767194,-5.02708 -0.03977,-2.38237 -0.08668,-4.71853 -0.104251,-5.19147 l -0.03195,-0.8599 h -10.45104 -10.451041 v 19.04543 19.04543 l 13.427604,-0.002 c 7.385182,-10e-4 14.767055,-0.0747 16.404165,-0.16369 z m -2.386664,-32.56551 -4.029481,-4.05885 -0.07374,3.76911 c -0.04056,2.07301 -0.01482,3.92263 0.05717,4.11027 0.100068,0.26077 1.066881,0.32904 4.10322,0.28974 l 3.972309,-0.0514 z M -31.683,138.25208 c -0.225145,-0.27128 -0.310687,-1.64257 -0.28683,-4.59801 0.03877,-4.8022 0.175422,-4.54042 -2.370298,-4.54042 -1.62079,0 -2.385248,-0.41124 -2.371387,-1.27567 0.0084,-0.52252 7.765206,-9.8616 8.472284,-10.20047 0.93323,-0.44726 1.727536,0.0817 3.611729,2.40509 1.036645,1.2783 2.788346,3.42433 3.892668,4.76897 2.954565,3.59751 2.713783,4.48525 -1.233283,4.547 l -1.256771,0.0197 v 4.21444 c 0,3.47852 -0.0726,4.28703 -0.415774,4.6302 -0.58938,0.58939 -7.556436,0.61469 -8.042338,0.0292 z m 6.076862,-6.59249 c 0,-3.18982 0.08904,-4.40713 0.337447,-4.61329 0.185598,-0.15403 0.888156,-0.31744 1.561243,-0.36312 l 1.223796,-0.0831 -1.600467,-1.98438 c -0.880256,-1.0914 -2.034247,-2.49357 -2.564421,-3.11593 l -0.963954,-1.13156 -2.556701,3.11593 -2.556703,3.11594 1.289381,0.0792 c 0.738648,0.0454 1.430187,0.24889 1.619041,0.47645 0.238292,0.28712 0.314267,1.56683 0.274119,4.61712 l -0.05554,4.21991 h 1.996379 1.996381 z"
       inkscape:label="upload_file"
       inkscape:export-filename="./upload_file.svg"
       inkscape:export-xdpi="16.228992"
       inkscape:export-ydpi="16.228992" /><path
       id="path379"
       style="fill:#429bdc;fill-opacity:1;stroke-width:0.264583"
       d="m 147.14906,142.12051 c -0.3638,-0.18235 -0.70084,-0.60665 -0.74897,-0.94287 -0.0481,-0.33623 0.60564,-2.86456 1.45283,-5.61852 l 1.54035,-5.0072 15.4805,-15.45603 c 13.48538,-13.46407 15.60541,-15.478819 16.44968,-15.632809 0.53305,-0.0972 1.24743,-0.0905 1.5875,0.0149 0.34008,0.10545 1.89689,1.448029 3.4596,2.983499 2.96786,2.91616 3.39133,3.66298 2.98805,5.26975 -0.12076,0.48114 -5.3182,5.87292 -15.44109,16.01845 l -15.25907,15.29319 -4.89479,1.55659 c -2.69214,0.85612 -5.13292,1.62318 -5.42396,1.70457 -0.29104,0.0814 -0.82683,-0.001 -1.19063,-0.18357 z m 6.67725,-3.95841 2.04704,-0.6112 -2.34769,-2.33681 -2.34769,-2.33681 -0.80652,2.61038 c -0.44358,1.4357 -0.88604,2.935 -0.98324,3.33177 l -0.17673,0.7214 1.2839,-0.38377 c 0.70614,-0.21107 2.20506,-0.65881 3.33093,-0.99496 z m 24.72014,-26.9722 c -3.55965,-3.86767 -1.61843,-4.94687 -14.81254,8.23488 l -11.41196,11.40128 2.76844,2.7779 2.76844,2.77789 11.42427,-11.42202 11.42428,-11.42201 z m 6.42494,-1.91831 2.49001,-2.5004 -2.47783,-2.52668 c -1.3628,-1.38968 -2.69799,-2.52669 -2.96707,-2.52669 -0.26909,0 -1.51084,1.0262 -2.75944,2.28044 l -2.27018,2.28043 2.7373,2.74665 c 1.50551,1.51066 2.74178,2.74665 2.74725,2.74665 0.005,0 1.13046,-1.12518 2.49996,-2.5004 z"
       inkscape:label="rename"
       inkscape:export-filename="rename.svg"
       inkscape:export-xdpi="16.228992"
       inkscape:export-ydpi="16.228992" /><path
       style="fill:#429bdc;fill-opacity:1;stroke-width:0.264583"
       d="m 102.79369,220.22802 -0.64944,-0.64943 v -9.01349 -9.01348 l -3.770307,0.0332 c -2.073672,0.0182 -3.967771,-0.0473 -4.209108,-0.14568 -0.24134,-0.0984 -0.582914,-0.52677 -0.759058,-0.95202 -0.264134,-0.63767 -0.248907,-0.88207 0.08688,-1.39454 0.223925,-0.34175 3.424372,-4.24175 7.112103,-8.66666 3.68773,-4.42492 7.04635,-8.49337 7.4636,-9.041 0.81273,-1.06669 1.61566,-1.41045 2.674,-1.14483 0.59188,0.14856 6.08084,6.50846 14.38672,16.66949 1.98871,2.4329 2.22407,3.11888 1.4135,4.11989 -0.451,0.55697 -0.64965,0.58193 -4.36562,0.54871 l -3.89312,-0.0348 v 8.89366 8.89367 l -0.7734,0.77339 -0.7734,0.7734 h -6.64696 -6.64696 z m 10.68883,-2.43097 1.62632,-0.16998 v -9.04943 c 0,-8.36496 0.0359,-9.0819 0.47437,-9.47872 0.3715,-0.33621 1.17086,-0.44551 3.68631,-0.50403 l 3.21195,-0.0747 -5.94855,-7.14375 c -3.27171,-3.92906 -6.04985,-7.24507 -6.17365,-7.3689 -0.18297,-0.183 -8.0348,8.96008 -11.611008,13.52046 l -0.881806,1.12448 h 3.314524 c 3.12519,0 3.33804,0.0336 3.7264,0.58804 0.35302,0.50401 0.41187,1.86366 0.41187,9.51542 v 8.92738 l 2.57969,0.0865 c 1.41883,0.0476 2.88965,0.11141 3.26848,0.14187 0.37884,0.0305 1.42063,-0.0211 2.3151,-0.11461 z"
       id="path369"
       inkscape:label="path_up"
       inkscape:export-filename="up.svg"
       inkscape:export-xdpi="16.228992"
       inkscape:export-ydpi="16.228992" /><path
       style="fill:#429bdc;stroke-width:0.0875596;fill-opacity:1"
       d="m 26.662624,230.12807 c -1.579969,-0.23153 -3.416184,-1.31344 -4.439327,-2.61573 -1.328905,-1.69148 -1.821828,-3.59989 -1.524489,-5.90231 0.02168,-0.16806 -0.215265,-0.29418 -7.50999,-3.99705 -4.9702676,-2.52297 -8.899135,-4.52426 -9.5832213,-4.88154 L 3.0410196,212.43659 2.5111,212.95594 c -0.8962558,0.87836 -2.09037659,1.5361 -3.37562418,1.85937 -0.29958392,0.0754 -0.94481952,0.12004 -1.70740712,0.11828 -1.028117,-0.002 -1.3317636,-0.0355 -1.8825326,-0.20537 -2.1122986,-0.65143 -3.7440068,-2.05106 -4.6511581,-3.98964 -0.4346535,-0.92879 -0.6090347,-1.66852 -0.6617264,-2.80695 -0.041062,-0.88617 -0.019273,-1.1731 0.1387047,-1.83233 0.661103,-2.75834 2.6452081,-4.79851 5.3359569,-5.48668 0.9992964,-0.25558 2.7187706,-0.25322 3.66744453,0.005 0.82665686,0.22503 1.80489617,0.70115 2.50837507,1.22083 l 0.4858784,0.35895 0.5941203,-0.31786 c 0.3267623,-0.17483 0.8305224,-0.44576 1.119474,-0.60207 0.2889515,-0.15631 1.2345922,-0.64945 2.1014361,-1.09587 0.8668436,-0.44641 1.7336763,-0.90044 1.9263107,-1.00893 0.1926344,-0.10851 1.276181,-0.67941 2.4078987,-1.26872 1.131703,-0.58931 2.491072,-1.2974 3.020804,-1.57353 4.355092,-2.27022 5.794024,-3.01463 6.455596,-3.33964 l 0.764221,-0.37546 -0.06373,-0.35358 c -0.130282,-0.72273 -0.05627,-2.24522 0.146929,-3.02061 0.373672,-1.4262 1.280222,-2.83851 2.433038,-3.79046 0.651313,-0.53782 1.804075,-1.13046 2.697441,-1.38676 0.888735,-0.25498 2.554366,-0.2821 3.502394,-0.057 3.325704,0.78954 5.647608,3.68238 5.647608,7.03633 0,3.44855 -2.35471,6.36823 -5.778943,7.1655 -0.889938,0.20723 -2.269838,0.17554 -3.256487,-0.0748 -1.3792,-0.34987 -2.238662,-0.85879 -3.483846,-2.06293 l -0.567355,-0.54867 -0.789811,0.40023 c -0.434401,0.22014 -2.188588,1.13348 -3.898184,2.02965 -1.709609,0.89618 -3.758507,1.9676 -4.553115,2.38095 -0.794604,0.41335 -2.429783,1.27098 -3.6337276,1.90588 -1.203943,0.63486 -2.7916327,1.46618 -3.528192,1.84735 -1.1610513,0.60084 -1.3324096,0.71634 -1.2881493,0.86816 0.4663652,1.59968 0.5613465,2.59688 0.3627116,3.80794 -0.075009,0.45702 -0.1082967,0.85769 -0.074133,0.89039 0.060445,0.0578 4.0461322,2.09855 10.6569143,5.45662 4.24295,2.15527 6.06278,3.09297 6.422931,3.30957 l 0.293745,0.17665 0.471261,-0.52905 c 0.884648,-0.99311 2.243119,-1.83272 3.538124,-2.18671 0.427484,-0.11685 0.89607,-0.15557 1.882544,-0.15557 1.408251,0 1.976848,0.11518 3.108363,0.62971 1.288348,0.58581 2.647936,1.92663 3.325002,3.2791 0.619766,1.238 0.83002,2.23015 0.764297,3.60653 -0.05891,1.23323 -0.239884,1.94171 -0.762468,2.98449 -1.402458,2.79855 -4.490367,4.36991 -7.671429,3.90379 z m 2.856087,-2.89462 c 0.726276,-0.30798 1.130785,-0.58387 1.685243,-1.14928 2.418222,-2.46605 1.234779,-6.77636 -2.099685,-7.64738 -2.62381,-0.68539 -5.209121,0.92031 -5.774607,3.58652 -0.467887,2.20599 0.85597,4.52327 3.009626,5.26807 0.52461,0.18143 0.722907,0.20262 1.64713,0.1763 0.859648,-0.0246 1.138285,-0.0671 1.532293,-0.23423 z M -1.0899102,212.09297 c 0.8112061,-0.27911 1.32733969,-0.6073 1.91919324,-1.22035 1.78693796,-1.85093 1.77956846,-4.62836 -0.0173006,-6.51621 -0.91781661,-0.96428 -2.61897114,-1.51897 -3.95458934,-1.28944 -2.3500583,0.40386 -3.9447119,2.20016 -3.968791,4.47065 -0.014783,1.39133 0.4568491,2.56108 1.4005845,3.47397 1.2362567,1.19584 3.0526724,1.62092 4.6208927,1.08138 z M 28.942088,195.54385 c 0.920827,-0.23551 1.477093,-0.55125 2.162812,-1.22763 1.175855,-1.15984 1.635083,-2.76173 1.254565,-4.37622 -0.293266,-1.24427 -1.275282,-2.46251 -2.433246,-3.01852 -0.781543,-0.37528 -1.236048,-0.48118 -2.071139,-0.48259 -1.301408,-0.002 -2.272662,0.4145 -3.241901,1.39081 -0.757538,0.76305 -1.083372,1.35948 -1.289004,2.35951 -0.569899,2.77154 1.63216,5.47617 4.495001,5.52088 0.245129,0.004 0.750445,-0.071 1.122912,-0.16624 z"
       id="path388"
       inkscape:label="share"
       inkscape:export-filename="share.svg"
       inkscape:export-xdpi="13.574418"
       inkscape:export-ydpi="13.574418" /></g></svg>
