<?xml version="1.0" encoding="UTF-8" standalone="no"?>
<!-- Created with Inkscape (http://www.inkscape.org/) -->

<svg
   width="67.73333mm"
   height="67.73333mm"
   viewBox="0 0 67.73333 67.73333"
   version="1.1"
   id="svg5"
   xml:space="preserve"
   inkscape:version="1.2.2 (b0a8486541, 2022-12-01)"
   sodipodi:docname="icons.svg"
   xmlns:inkscape="http://www.inkscape.org/namespaces/inkscape"
   xmlns:sodipodi="http://sodipodi.sourceforge.net/DTD/sodipodi-0.dtd"
   xmlns="http://www.w3.org/2000/svg"
   xmlns:svg="http://www.w3.org/2000/svg"><sodipodi:namedview
     id="namedview7"
     pagecolor="#ffffff"
     bordercolor="#000000"
     borderopacity="0.25"
     inkscape:showpageshadow="2"
     inkscape:pageopacity="0.0"
     inkscape:pagecheckerboard="0"
     inkscape:deskcolor="#d1d1d1"
     inkscape:document-units="mm"
     showgrid="false"
     inkscape:zoom="0.74653479"
     inkscape:cx="310.76917"
     inkscape:cy="542.50653"
     inkscape:window-width="1920"
     inkscape:window-height="1008"
     inkscape:window-x="0"
     inkscape:window-y="0"
     inkscape:window-maximized="1"
     inkscape:current-layer="layer1" /><defs
     id="defs2" /><g
     inkscape:groupmode="layer"
     id="layer2"
     inkscape:label="Outlines"
     transform="translate(62.595758,-86.243993)"><path
       id="rect1930-3"
       style="fill:#6eb2e4;fill-opacity:1;stroke-width:0.264583"
       d="m -54.595731,86.243994 c -4.431995,0 -8.000028,3.568033 -8.000028,8.000032 V 145.9773 c 0,4.432 3.568033,8.00003 8.000028,8.00003 h 51.7332767 c 4.431995,0 8.000028,-3.56803 8.000028,-8.00003 V 94.244026 c 0,-4.431999 -3.568033,-8.000032 -8.000028,-8.000032 z m 0.463021,2.462899 h 50.8072347 c 3.32399697,0 6.000151,2.676153 6.000151,6.000153 v 50.807234 c 0,3.324 -2.67615403,6.00015 -6.000151,6.00015 H -54.13271 c -3.323997,0 -6.00015,-2.67615 -6.00015,-6.00015 V 94.707046 c 0,-3.324 2.676153,-6.000153 6.00015,-6.000153 z"
       inkscape:label="Outline" /></g><g
     inkscape:groupmode="layer"
     id="layer3"
     inkscape:label="Objects"
     transform="translate(62.595758,-86.243993)"><path
       id="path381"
       style="fill:#429bdc;fill-opacity:1;stroke-width:0.264583"
       d="m -45.685348,141.709 c -1.366876,-0.7576 -1.332612,-0.22331 -1.342663,-20.937 -0.0085,-17.44461 0.03254,-19.38171 0.422078,-19.93784 0.916461,-1.30843 1.369628,-1.353841 13.510553,-1.353841 h 11.313167 l 6.157829,6.157821 6.1578284,6.15783 v 14.23249 c 0,9.25552 -0.09527,14.41048 -0.272426,14.74151 -0.7034214,1.31435 -0.6258874,1.30893 -18.5659954,1.29888 -13.393335,-0.007 -16.874694,-0.0796 -17.380371,-0.35985 z m 30.86098,-1.92209 2.976562,-0.16186 v -12.9129 -12.91289 l -5.153983,-0.0819 -5.153981,-0.0819 -0.694891,-0.69551 c -0.686562,-0.68717 -0.695762,-0.74744 -0.767194,-5.02708 -0.03977,-2.38237 -0.08668,-4.71853 -0.104251,-5.19147 l -0.03195,-0.8599 h -10.45104 -10.451041 v 19.04543 19.04543 l 13.427604,-0.002 c 7.385182,-10e-4 14.767055,-0.0747 16.404165,-0.16369 z m -2.386664,-32.56551 -4.029481,-4.05885 -0.07374,3.76911 c -0.04056,2.07301 -0.01482,3.92263 0.05717,4.11027 0.100068,0.26077 1.066881,0.32904 4.10322,0.28974 l 3.972309,-0.0514 z M -31.683,138.25208 c -0.225145,-0.27128 -0.310687,-1.64257 -0.28683,-4.59801 0.03877,-4.8022 0.175422,-4.54042 -2.370298,-4.54042 -1.62079,0 -2.385248,-0.41124 -2.371387,-1.27567 0.0084,-0.52252 7.765206,-9.8616 8.472284,-10.20047 0.93323,-0.44726 1.727536,0.0817 3.611729,2.40509 1.036645,1.2783 2.788346,3.42433 3.892668,4.76897 2.954565,3.59751 2.713783,4.48525 -1.233283,4.547 l -1.256771,0.0197 v 4.21444 c 0,3.47852 -0.0726,4.28703 -0.415774,4.6302 -0.58938,0.58939 -7.556436,0.61469 -8.042338,0.0292 z m 6.076862,-6.59249 c 0,-3.18982 0.08904,-4.40713 0.337447,-4.61329 0.185598,-0.15403 0.888156,-0.31744 1.561243,-0.36312 l 1.223796,-0.0831 -1.600467,-1.98438 c -0.880256,-1.0914 -2.034247,-2.49357 -2.564421,-3.11593 l -0.963954,-1.13156 -2.556701,3.11593 -2.556703,3.11594 1.289381,0.0792 c 0.738648,0.0454 1.430187,0.24889 1.619041,0.47645 0.238292,0.28712 0.314267,1.56683 0.274119,4.61712 l -0.05554,4.21991 h 1.996379 1.996381 z"
       inkscape:label="upload_file"
       inkscape:export-filename="./upload_file.svg"
       inkscape:export-xdpi="16.228992"
       inkscape:export-ydpi="16.228992" /></g></svg>
