<?xml version="1.0" encoding="UTF-8" standalone="no"?>
<!-- Created with Inkscape (http://www.inkscape.org/) -->

<svg
   width="67.733322mm"
   height="67.733322mm"
   viewBox="0 0 67.733322 67.733322"
   version="1.1"
   id="svg5"
   xml:space="preserve"
   inkscape:version="1.2.2 (b0a8486541, 2022-12-01)"
   sodipodi:docname="icons.svg"
   xmlns:inkscape="http://www.inkscape.org/namespaces/inkscape"
   xmlns:sodipodi="http://sodipodi.sourceforge.net/DTD/sodipodi-0.dtd"
   xmlns="http://www.w3.org/2000/svg"
   xmlns:svg="http://www.w3.org/2000/svg"><sodipodi:namedview
     id="namedview7"
     pagecolor="#ffffff"
     bordercolor="#000000"
     borderopacity="0.25"
     inkscape:showpageshadow="2"
     inkscape:pageopacity="0.0"
     inkscape:pagecheckerboard="0"
     inkscape:deskcolor="#d1d1d1"
     inkscape:document-units="mm"
     showgrid="false"
     inkscape:zoom="0.74653479"
     inkscape:cx="310.76917"
     inkscape:cy="542.50653"
     inkscape:window-width="1920"
     inkscape:window-height="1008"
     inkscape:window-x="0"
     inkscape:window-y="0"
     inkscape:window-maximized="1"
     inkscape:current-layer="layer1" /><defs
     id="defs2" /><g
     inkscape:groupmode="layer"
     id="layer2"
     inkscape:label="Outlines"
     transform="translate(-132.05965,19.443304)"><path
       id="rect1930-5"
       style="fill:#6eb2e4;fill-opacity:1;stroke-width:0.264583"
       d="m 140.05967,-19.443305 c -4.432,0 -8.00003,3.568033 -8.00003,8.000032 v 51.73327 c 0,4.432 3.56803,8.00003 8.00003,8.00003 h 51.73328 c 4.43199,0 8.00003,-3.56803 8.00003,-8.00003 v -51.73327 c 0,-4.431999 -3.56804,-8.000032 -8.00003,-8.000032 z m 0.46302,2.462899 h 50.80724 c 3.32399,0 6.00015,2.676153 6.00015,6.000153 v 50.80723 c 0,3.324 -2.67616,6.00015 -6.00015,6.00015 h -50.80724 c -3.324,0 -6.00015,-2.67615 -6.00015,-6.00015 v -50.80723 c 0,-3.324 2.67615,-6.000153 6.00015,-6.000153 z"
       inkscape:label="Outline" /></g><g
     inkscape:groupmode="layer"
     id="layer3"
     inkscape:label="Objects"
     transform="translate(-132.05965,19.443304)"><path
       id="path409"
       style="fill:#429bdc;fill-opacity:1;stroke-width:0.264583"
       d="m 149.12854,30.918247 c -1.14013,-0.623599 -1.19063,-0.896713 -1.19063,-6.439005 0,-3.785368 0.0916,-5.412079 0.3175,-5.637972 0.48607,-0.486071 1.4837,-0.377788 1.78986,0.194273 0.15897,0.297034 0.27389,2.460945 0.27389,5.157136 v 4.645366 l 15.01511,-0.0069 c 8.2583,-0.0038 15.40205,-0.07558 15.875,-0.159501 l 0.85989,-0.15258 v -4.485865 c 0,-2.586246 0.11599,-4.702585 0.27389,-4.997637 0.36949,-0.690391 1.72856,-0.690391 2.09805,0 0.15989,0.298751 0.27389,2.506821 0.27389,5.304805 0,5.067446 -0.18666,6.010738 -1.30826,6.610996 -0.72944,0.390384 -33.5619,0.358685 -34.27819,-0.0331 z m 2.56646,-4.245311 c -0.5031,-0.503097 -0.38576,-1.744022 0.19427,-2.054442 0.33416,-0.178834 5.33862,-0.273891 14.41979,-0.273891 13.55524,0 13.92144,0.01341 14.43718,0.529167 0.63699,0.636987 0.64734,0.771879 0.11729,1.528627 l -0.41188,0.588039 h -14.21957 c -10.7069,0 -14.29802,-0.07843 -14.53708,-0.3175 z m 12.61714,-5.040312 c -5.69701,-6.455595 -8.43673,-9.818314 -8.43673,-10.355199 0,-1.143047 0.75098,-1.4849051 3.26198,-1.4849051 h 2.29427 v -6.194189 -6.194186 l 0.81405,-0.68498 c 0.77681,-0.653637 0.95932,-0.684977 3.98911,-0.684977 3.15648,0 3.17957,0.0045 3.94844,0.773398 l 0.7734,0.773395 v 6.125985 6.125985 l 2.05052,-0.0752 c 1.12779,-0.04136 2.31814,0.01701 2.64522,0.129709 0.67624,0.2330081 1.03914,1.2866111 0.69499,2.0177391 -0.12725,0.270315 -2.2327,2.822573 -4.67879,5.67169 -4.25711,4.958527 -4.48845,5.180211 -5.40578,5.180211 -0.79541,0 -1.12705,-0.191177 -1.95068,-1.124479 z m 6.69528,-9.404802 c -1.10553,-0.04303 -2.16453,-0.206439 -2.35333,-0.363127 -0.26412,-0.2192 -0.34326,-1.772007 -0.34326,-6.7347781 v -6.449896 h -2.11667 -2.11666 v 6.235102 c 0,3.79204 -0.10732,6.4356261 -0.2739,6.7468741 -0.23649,0.441889 -0.56918,0.511773 -2.43633,0.511773 h -2.16245 l 1.06465,1.124479 c 0.58557,0.618464 1.70386,1.898386 2.48511,2.844271 0.78124,0.945885 1.89024,2.216333 2.46444,2.823213 l 1.04399,1.103423 3.37724,-3.881548 3.37724,-3.881546 z"
       inkscape:label="download"
       inkscape:export-filename="download.svg"
       inkscape:export-xdpi="17.193979"
       inkscape:export-ydpi="17.193979" /></g></svg>
