<?xml version="1.0" encoding="UTF-8" standalone="no"?>
<!-- Created with Inkscape (http://www.inkscape.org/) -->

<svg
   width="67.733307mm"
   height="67.733337mm"
   viewBox="0 0 67.733307 67.733337"
   version="1.1"
   id="svg5"
   xml:space="preserve"
   inkscape:version="1.2.2 (b0a8486541, 2022-12-01)"
   sodipodi:docname="icons.svg"
   xmlns:inkscape="http://www.inkscape.org/namespaces/inkscape"
   xmlns:sodipodi="http://sodipodi.sourceforge.net/DTD/sodipodi-0.dtd"
   xmlns="http://www.w3.org/2000/svg"
   xmlns:svg="http://www.w3.org/2000/svg"><sodipodi:namedview
     id="namedview7"
     pagecolor="#ffffff"
     bordercolor="#000000"
     borderopacity="0.25"
     inkscape:showpageshadow="2"
     inkscape:pageopacity="0.0"
     inkscape:pagecheckerboard="0"
     inkscape:deskcolor="#d1d1d1"
     inkscape:document-units="mm"
     showgrid="false"
     inkscape:zoom="0.74653479"
     inkscape:cx="310.76917"
     inkscape:cy="542.50653"
     inkscape:window-width="1920"
     inkscape:window-height="1008"
     inkscape:window-x="0"
     inkscape:window-y="0"
     inkscape:window-maximized="1"
     inkscape:current-layer="layer1" /><defs
     id="defs2" /><g
     inkscape:groupmode="layer"
     id="layer2"
     inkscape:label="Outlines"
     transform="translate(-229.40558,14.696179)"><path
       id="rect1930-35"
       style="fill:#6eb2e4;fill-opacity:1;stroke-width:0.264583"
       d="m 237.4056,-14.696179 c -4.43199,0 -8.00002,3.568033 -8.00002,8.0000322 V 45.037123 c 0,4.432 3.56803,8.00003 8.00002,8.00003 h 51.73328 c 4.432,0 8.00003,-3.56803 8.00003,-8.00003 V -6.6961468 c 0,-4.4319992 -3.56803,-8.0000322 -8.00003,-8.0000322 z m 0.46303,2.462899 h 50.80723 c 3.324,0 6.00015,2.6761532 6.00015,6.0001532 V 44.574103 c 0,3.324 -2.67615,6.00015 -6.00015,6.00015 h -50.80723 c -3.324,0 -6.00015,-2.67615 -6.00015,-6.00015 V -6.2331268 c 0,-3.324 2.67615,-6.0001532 6.00015,-6.0001532 z"
       inkscape:label="Outline" /></g><g
     inkscape:groupmode="layer"
     id="layer3"
     inkscape:label="Objects"
     transform="translate(-229.40558,14.696179)"><path
       id="path393"
       style="fill:#429bdc;fill-opacity:1;stroke-width:0.264583"
       d="m 251.11742,38.810999 c -0.89517,-0.441216 -1.72306,-1.410827 -1.99633,-2.338102 -0.0858,-0.291041 -0.34105,-3.505729 -0.56727,-7.143749 -0.22622,-3.638021 -0.5264,-8.400521 -0.66706,-10.583333 -0.14066,-2.182812 -0.2582,-4.23664 -0.2612,-4.564062 -0.003,-0.347517 -0.16891,-0.595313 -0.39815,-0.595313 -0.21598,0 -0.78153,-0.347422 -1.25677,-0.772046 -0.84988,-0.759365 -0.86407,-0.809718 -0.86407,-3.0656164 0,-2.185016 0.0351,-2.323793 0.74236,-2.93212 0.71732,-0.617014 0.88401,-0.638551 4.94204,-0.638551 4.64314,0 5.03123,-0.124923 5.03123,-1.619538 0,-1.168887 0.65385,-2.222532 1.68197,-2.71041 0.75334,-0.357481 1.86888,-0.43238 6.4278,-0.431562 4.99538,7.94e-4 5.59587,0.04953 6.35928,0.515009 1.04546,0.63746 1.47236,1.390057 1.65839,2.923585 l 0.14443,1.190625 4.72041,0.132291 c 4.56532,0.127945 4.73701,0.152816 5.22552,0.756915 0.40205,0.497178 0.50511,1.052425 0.50511,2.72129 0,2.3528864 -0.34509,3.1509224 -1.58455,3.6643234 -0.96269,0.398758 -0.81602,-0.900724 -1.97545,17.50249 -0.19845,3.150021 -0.48612,5.961425 -0.63926,6.247567 -0.15314,0.286141 -0.70385,0.893775 -1.22379,1.350295 l -0.94536,0.830035 -12.09548,-0.006 c -10.59985,-0.0053 -12.20285,-0.05894 -12.9638,-0.433999 z m 24.54853,-2.470393 c 0.29104,-0.291042 0.52916,-0.710065 0.52916,-0.931164 0,-0.221102 0.17042,-2.870242 0.37871,-5.886979 0.2083,-3.016739 0.4431,-6.556544 0.52179,-7.866232 0.0787,-1.309687 0.22345,-3.661171 0.32171,-5.22552 l 0.17864,-2.844271 h -13.76697 -13.76697 l 0.0974,1.521354 c 0.0536,0.836745 0.21731,3.307292 0.36385,5.490104 0.14655,2.182813 0.39027,5.933281 0.54162,8.334375 0.3865,6.131734 0.50839,7.090388 0.95879,7.540783 0.34024,0.340244 2.01354,0.396716 11.75489,0.396716 11.00541,0 11.37462,-0.01643 11.88736,-0.529166 z m 4.49791,-26.4583354 v -1.322917 h -16.27187 -16.27188 v 1.322917 1.3229164 h 16.27188 16.27187 z m -10.58694,-4.188536 c -0.002,-0.24292 -0.0754,-0.70956 -0.16316,-1.036982 -0.15898,-0.593264 -0.17855,-0.595312 -5.68492,-0.595312 h -5.52539 v 0.909277 c 0,1.130208 -0.0245,1.125921 6.54843,1.148268 4.34134,0.01476 4.82828,-0.02816 4.82504,-0.425251 z M 256.14565,34.605812 c -0.58761,-0.411578 -0.58804,-0.41829 -0.58804,-9.207499 0,-9.292876 0.0179,-9.430623 1.22854,-9.430623 1.34402,0 1.4173,0.495525 1.4173,9.583872 0,8.055017 -0.0222,8.429998 -0.52917,8.936961 -0.63699,0.636987 -0.77188,0.647337 -1.52863,0.117289 z m 6.9936,-0.07198 c -0.38895,-0.429776 -0.43789,-1.465424 -0.43789,-9.266089 v -8.782235 l 0.65062,-0.296441 c 0.52102,-0.23739 0.78455,-0.208693 1.32292,0.144063 l 0.6723,0.440507 v 8.710146 c 0,8.700884 -5.3e-4,8.710586 -0.58804,9.122026 -0.76189,0.533644 -1.08482,0.519295 -1.61991,-0.07198 z m 7.16888,0.198078 c -0.4265,-0.248412 -0.46302,-0.974037 -0.46302,-9.199454 0,-9.38803 0.022,-9.564769 1.19063,-9.564769 1.16733,0 1.19062,0.18438 1.19062,9.426725 0,7.639701 -0.0545,8.846209 -0.41577,9.2075 -0.47833,0.47833 -0.8493,0.510426 -1.50246,0.129998 z"
       inkscape:label="delete"
       inkscape:export-filename="./delete.svg"
       inkscape:export-xdpi="17.193979"
       inkscape:export-ydpi="17.193979" /></g></svg>
