<?xml version="1.0" encoding="UTF-8" standalone="no"?>
<!-- Created with Inkscape (http://www.inkscape.org/) -->

<svg
   width="67.73333mm"
   height="67.73333mm"
   viewBox="0 0 67.73333 67.73333"
   version="1.1"
   id="svg5"
   xml:space="preserve"
   inkscape:version="1.2.2 (b0a8486541, 2022-12-01)"
   sodipodi:docname="icons.svg"
   xmlns:inkscape="http://www.inkscape.org/namespaces/inkscape"
   xmlns:sodipodi="http://sodipodi.sourceforge.net/DTD/sodipodi-0.dtd"
   xmlns="http://www.w3.org/2000/svg"
   xmlns:svg="http://www.w3.org/2000/svg"><sodipodi:namedview
     id="namedview7"
     pagecolor="#ffffff"
     bordercolor="#000000"
     borderopacity="0.25"
     inkscape:showpageshadow="2"
     inkscape:pageopacity="0.0"
     inkscape:pagecheckerboard="0"
     inkscape:deskcolor="#d1d1d1"
     inkscape:document-units="mm"
     showgrid="false"
     inkscape:zoom="0.74653479"
     inkscape:cx="310.76917"
     inkscape:cy="542.50653"
     inkscape:window-width="1920"
     inkscape:window-height="1008"
     inkscape:window-x="0"
     inkscape:window-y="0"
     inkscape:window-maximized="1"
     inkscape:current-layer="layer1" /><defs
     id="defs2" /><g
     inkscape:groupmode="layer"
     id="layer2"
     inkscape:label="Outlines"
     transform="translate(-26.556986,-92.967641)"><path
       id="rect1930"
       style="fill:#6eb2e4;fill-opacity:1;stroke-width:0.264583"
       d="m 34.557015,92.967638 c -4.431995,0 -8.000028,3.568033 -8.000028,8.000032 v 51.73327 c 0,4.432 3.568033,8.00003 8.000028,8.00003 h 51.733277 c 4.431995,0 8.000028,-3.56803 8.000028,-8.00003 v -51.73327 c 0,-4.431999 -3.568033,-8.000032 -8.000028,-8.000032 z m 0.463021,2.462899 h 50.807235 c 3.323997,0 6.000151,2.676153 6.000151,6.000153 v 50.80723 c 0,3.324 -2.676154,6.00015 -6.000151,6.00015 H 35.020036 c -3.323997,0 -6.00015,-2.67615 -6.00015,-6.00015 v -50.80723 c 0,-3.324 2.676153,-6.000153 6.00015,-6.000153 z"
       inkscape:label="Outline"
       inkscape:export-filename="./boxed_upload_folder.svg"
       inkscape:export-xdpi="9"
       inkscape:export-ydpi="9" /></g><g
     inkscape:groupmode="layer"
     id="layer3"
     inkscape:label="Objects"
     transform="translate(-26.556986,-92.967641)"><path
       id="path385"
       style="fill:#429bdc;fill-opacity:1;stroke-width:0.264583"
       d="m 57.90104,146.06849 c -0.41519,-0.24183 -0.46302,-0.78757 -0.46302,-5.28362 v -5.01394 h -2.207946 c -1.88291,0 -2.279518,-0.0791 -2.694091,-0.53717 -0.374708,-0.41405 -0.429593,-0.68459 -0.239445,-1.18026 0.135681,-0.3537 2.183312,-2.96947 4.550292,-5.81283 3.67903,-4.41947 4.40859,-5.16915 5.02708,-5.16568 0.39792,0.002 0.86063,0.0915 1.02825,0.19843 0.16762,0.10692 2.22145,2.51292 4.56407,5.34667 5.39116,6.52145 5.51142,7.15084 1.36627,7.15084 h -1.86948 v 4.7625 c 0,6.18128 0.29702,5.82373 -4.82864,5.81279 -2.07367,-0.004 -3.97867,-0.1294 -4.23334,-0.27773 z m 6.35632,-7.241 c 0.0864,-5.66112 0.13209,-5.76971 2.35103,-5.58636 1.7236,0.14243 1.72761,0.15447 -1.01233,-3.03893 -1.06718,-1.24379 -2.30465,-2.71702 -2.74994,-3.27384 l -0.80961,-1.0124 -3.06344,3.67072 -3.063446,3.67071 1.624096,0.0726 c 2.5084,0.11218 2.55014,0.20693 2.55014,5.78864 v 4.61202 l 2.05052,-0.0773 2.05052,-0.0773 z m -24.017252,4.94668 c -0.57355,-0.28652 -1.127463,-0.86546 -1.455208,-1.52094 -0.510776,-1.02156 -0.529167,-1.5875 -0.529167,-16.28351 0,-16.93882 -0.09377,-16.04303 1.800312,-17.19793 0.776198,-0.47327 1.368367,-0.51562 7.22254,-0.51653 6.177307,-0.001 6.404533,0.0177 7.255642,0.59432 0.637638,0.43203 1.011262,0.99445 1.3622,2.05052 l 0.483571,1.45521 10.649322,-0.009 c 9.39602,-0.008 10.77904,0.0441 11.75149,0.43827 1.29575,0.52525 1.88237,1.31678 2.15366,2.90595 0.18136,1.06234 0.2713,1.16756 1.11655,1.30608 1.82868,0.29971 2.90367,1.49393 2.90367,3.22574 0,2.03426 -2.97988,21.27254 -3.41222,22.02948 -0.24907,0.43607 -0.85097,1.06115 -1.33757,1.38907 -0.84362,0.56852 -1.12718,0.59621 -6.10486,0.59621 -5.78809,0 -6.1595,-0.10096 -5.65519,-1.53717 l 0.24994,-0.71178 4.8888,-0.13229 c 2.89632,-0.0784 5.09349,-0.25335 5.39101,-0.42932 0.35112,-0.20767 0.56818,-0.76485 0.72151,-1.85208 0.12061,-0.85528 0.80541,-5.59479 1.52178,-10.53224 0.71637,-4.93746 1.24216,-9.13441 1.16842,-9.32657 -0.19324,-0.50358 -37.052147,-0.51786 -37.740368,-0.0146 -0.37084,0.27117 -0.74593,2.3584 -1.974554,10.98768 -0.981765,6.89547 -1.426059,10.74362 -1.259639,10.91004 0.153033,0.15304 2.998949,0.25712 7.030442,0.25712 7.113653,0 7.408333,0.0474 7.408333,1.19063 0,1.14698 -0.281001,1.19064 -7.659687,1.19021 -6.157788,-2.6e-4 -7.138969,-0.0575 -7.950729,-0.46302 z m 1.949254,-25.31698 c 0.941713,-1.43723 0.969677,-1.43968 16.992118,-1.48651 8.13615,-0.0238 15.77527,-0.10607 16.97581,-0.18287 2.04284,-0.13069 2.18282,-0.17765 2.18282,-0.73232 0,-0.32597 -0.15951,-0.72505 -0.35446,-0.88685 -0.24531,-0.20359 -3.9317,-0.3154 -11.97239,-0.36312 l -11.617944,-0.069 -0.661459,-1.98437 -0.661458,-1.98438 -5.688541,-0.065 c -3.296698,-0.0377 -5.855414,0.0416 -6.085417,0.18857 -0.334012,0.21338 -0.405185,1.35522 -0.449336,7.20873 l -0.05246,6.95518 0.459783,-2.93799 c 0.261,-1.66779 0.664344,-3.2502 0.932936,-3.66013 z"
       inkscape:label="upload_folder"
       inkscape:export-filename="./upload_folder.svg"
       inkscape:export-xdpi="16.228992"
       inkscape:export-ydpi="16.228992" /></g></svg>
