<?xml version="1.0" encoding="UTF-8" standalone="no"?>
<!-- Created with Inkscape (http://www.inkscape.org/) -->

<svg
   width="45.482742mm"
   height="35.977921mm"
   viewBox="0 0 45.482742 35.977921"
   version="1.1"
   id="svg5"
   xml:space="preserve"
   inkscape:version="1.2.2 (b0a8486541, 2022-12-01)"
   sodipodi:docname="icons.svg"
   xmlns:inkscape="http://www.inkscape.org/namespaces/inkscape"
   xmlns:sodipodi="http://sodipodi.sourceforge.net/DTD/sodipodi-0.dtd"
   xmlns="http://www.w3.org/2000/svg"
   xmlns:svg="http://www.w3.org/2000/svg"><sodipodi:namedview
     id="namedview7"
     pagecolor="#ffffff"
     bordercolor="#000000"
     borderopacity="0.25"
     inkscape:showpageshadow="2"
     inkscape:pageopacity="0.0"
     inkscape:pagecheckerboard="0"
     inkscape:deskcolor="#d1d1d1"
     inkscape:document-units="mm"
     showgrid="false"
     inkscape:zoom="0.74653479"
     inkscape:cx="310.76917"
     inkscape:cy="542.50653"
     inkscape:window-width="1920"
     inkscape:window-height="1008"
     inkscape:window-x="0"
     inkscape:window-y="0"
     inkscape:window-maximized="1"
     inkscape:current-layer="layer1" /><defs
     id="defs2" /><g
     inkscape:groupmode="layer"
     id="layer2"
     inkscape:label="Outlines"
     transform="translate(-247.98064,-97.081159)"><path
       id="rect1930-62"
       style="fill:#6eb2e4;fill-opacity:1;stroke-width:0.264583"
       d="m 244.47357,79.585598 c -4.43199,0 -8.00002,3.568033 -8.00002,8.000032 v 51.73327 c 0,4.432 3.56803,8.00003 8.00002,8.00003 h 51.73328 c 4.432,0 8.00003,-3.56803 8.00003,-8.00003 V 87.58563 c 0,-4.431999 -3.56803,-8.000032 -8.00003,-8.000032 z m 0.46303,2.462899 h 50.80723 c 3.324,0 6.00015,2.676153 6.00015,6.000153 v 50.80723 c 0,3.324 -2.67615,6.00015 -6.00015,6.00015 H 244.9366 c -3.324,0 -6.00015,-2.67615 -6.00015,-6.00015 V 88.04865 c 0,-3.324 2.67615,-6.000153 6.00015,-6.000153 z"
       inkscape:label="Outline" /></g><g
     inkscape:groupmode="layer"
     id="layer3"
     inkscape:label="Objects"
     transform="translate(-247.98064,-97.081159)"><path
       id="path387"
       style="fill:#429bdc;fill-opacity:1;stroke-width:0.264583"
       d="m 249.90074,132.62934 c -0.47204,-0.2327 -1.09712,-0.80959 -1.38906,-1.28197 -0.51545,-0.834 -0.53082,-1.30473 -0.53082,-16.25276 0,-16.991538 -0.0583,-16.385368 1.67846,-17.458738 0.846,-0.52285 1.26193,-0.55471 7.24333,-0.55471 6.14409,0 6.37371,0.0189 7.22441,0.59532 0.64771,0.43884 1.01148,0.99516 1.3841,2.11666 l 0.50546,1.521358 10.75972,0.001 c 10.20497,0.001 10.8034,0.0276 11.60678,0.51747 0.97721,0.59584 1.58063,1.62954 1.81808,3.1145 0.14069,0.87979 0.30515,1.09273 1.05281,1.36308 0.48734,0.17623 1.18963,0.68116 1.56063,1.12207 0.77356,0.91932 0.8224,1.77974 0.32108,5.65585 -0.26672,2.06219 -0.37889,2.39011 -0.83715,2.44736 -0.29105,0.0364 -0.81072,-0.15305 -1.15484,-0.42091 l -0.62566,-0.48701 0.32419,-2.85269 c 0.27037,-2.37907 0.26443,-2.89056 -0.0358,-3.08077 -0.19799,-0.12545 -8.36134,-0.22991 -18.14077,-0.23214 -17.79825,-0.004 -19.12155,0.0581 -19.13227,0.89832 -0.002,0.15854 -0.64355,4.9317 -1.42562,10.60701 -0.78207,5.67531 -1.3687,10.40804 -1.30362,10.51719 0.0651,0.10914 8.38339,0.19843 18.48514,0.19843 h 18.36683 l 0.38156,-0.59531 c 0.20986,-0.32742 0.52586,-1.76326 0.70221,-3.19075 0.18737,-1.51663 0.4789,-2.75369 0.70137,-2.97617 0.50197,-0.50197 1.64196,-0.77661 1.94903,-0.46955 0.14847,0.14847 0.0559,1.61096 -0.23693,3.74392 -0.52557,3.82801 -0.84131,4.52664 -2.4311,5.37925 -0.86437,0.46357 -1.90763,0.48954 -19.43836,0.48384 -16.43479,-0.005 -18.62179,-0.0538 -19.3832,-0.42913 z m 1.60171,-24.60702 c 0.26037,-0.5011 0.8904,-1.05436 1.58181,-1.38906 1.13057,-0.5473 1.4184,-0.55626 17.86659,-0.55626 h 16.71751 l -0.004,-0.72761 c -0.009,-1.58339 0.5305,-1.5095 -12.07067,-1.65364 l -11.56518,-0.1323 -0.62342,-2.05052 -0.62343,-2.050518 h -5.89225 c -4.23008,0 -5.98181,0.0896 -6.20975,0.3175 -0.23232,0.232328 -0.3093,2.166568 -0.28695,7.209898 0.0297,6.69344 0.0399,6.81984 0.35381,4.37885 0.17779,-1.38245 0.51798,-2.8883 0.75598,-3.34634 z m 32.21636,18.25962 c -0.45551,-0.57909 -0.54837,-1.07194 -0.54837,-2.91042 v -2.21328 h -2.38125 c -2.02847,0 -2.45964,-0.0784 -2.91041,-0.52916 -0.66697,-0.66697 -0.67617,-1.61186 -0.0236,-2.41809 0.45186,-0.55821 0.76131,-0.63445 2.91041,-0.71709 l 2.4048,-0.0925 v -2.23466 c 0,-2.01983 0.0624,-2.2971 0.64943,-2.88409 0.35719,-0.35719 0.89838,-0.64943 1.20265,-0.64943 0.30428,0 0.84547,0.29224 1.20266,0.64943 0.58819,0.58819 0.64943,0.86264 0.64943,2.91041 v 2.26099 h 2.13406 c 2.89887,0 3.67502,0.42899 3.68272,2.03552 0.006,1.31338 -0.73769,1.66864 -3.4944,1.66864 h -2.32238 v 2.33136 c 0,1.98049 -0.0812,2.41851 -0.53948,2.91042 -0.7564,0.81191 -1.92632,0.75911 -2.61632,-0.11808 z"
       inkscape:label="new_folder" /></g></svg>
