<?xml version="1.0" encoding="UTF-8" standalone="no"?>
<!-- Created with Inkscape (http://www.inkscape.org/) -->

<svg
   width="512"
   height="512"
   viewBox="0 0 135.46666 135.46667"
   version="1.1"
   id="svg5"
   xml:space="preserve"
   inkscape:version="1.2.2 (b0a8486541, 2022-12-01)"
   sodipodi:docname="icon.svg"
   xmlns:inkscape="http://www.inkscape.org/namespaces/inkscape"
   xmlns:sodipodi="http://sodipodi.sourceforge.net/DTD/sodipodi-0.dtd"
   xmlns="http://www.w3.org/2000/svg"
   xmlns:svg="http://www.w3.org/2000/svg"><sodipodi:namedview
     id="namedview7"
     pagecolor="#ffffff"
     bordercolor="#000000"
     borderopacity="0.25"
     inkscape:showpageshadow="2"
     inkscape:pageopacity="0.0"
     inkscape:pagecheckerboard="0"
     inkscape:deskcolor="#d1d1d1"
     inkscape:document-units="mm"
     showgrid="false"
     inkscape:zoom="0.74653479"
     inkscape:cx="310.76917"
     inkscape:cy="483.56755"
     inkscape:window-width="1920"
     inkscape:window-height="1008"
     inkscape:window-x="0"
     inkscape:window-y="0"
     inkscape:window-maximized="1"
     inkscape:current-layer="layer1" /><defs
     id="defs2" /><g
     inkscape:label="Layer 1"
     inkscape:groupmode="layer"
     id="layer1"><path
       id="path928"
       style="fill:#808080;stroke-width:0.195603;fill-opacity:1"
       d="m 14.970513,100.68896 c -0.03083,-2.429759 -0.04138,-4.432251 -0.02345,-4.449995 0.01792,-0.01774 23.321691,-0.0099 51.78614,0.01737 l 51.753547,0.04961 v 4.400355 4.40036 H 66.756652 15.026554 Z M 14.816668,57.966168 V 30.386034 l 5.623612,0.01552 5.623614,0.01552 2.347248,3.124794 c 2.434654,3.241157 12.7723,16.924771 13.760631,18.214513 l 0.562585,0.73416 3.596609,-4.746405 c 1.978132,-2.61052 5.75264,-7.584033 8.387796,-11.05225 l 4.791189,-6.305877 h 5.526918 5.52692 v 27.580134 27.580131 h -5.671526 -5.671528 l -0.04989,-18.59971 -0.04989,-18.599713 -1.940989,2.5113 c -3.744798,4.845122 -9.642685,12.511817 -11.56778,15.037032 -1.069168,1.402462 -2.150147,2.810809 -2.402177,3.129656 l -0.458236,0.57973 -0.479534,-0.586812 c -0.263741,-0.322739 -1.558216,-1.995154 -2.876608,-3.716465 -1.318392,-1.721317 -3.272983,-4.260305 -4.343536,-5.6422 -2.622524,-3.385224 -5.142059,-6.675936 -7.032161,-9.184576 -0.860657,-1.1423 -1.630847,-2.080524 -1.711535,-2.084931 -0.08068,-0.0045 -0.146702,8.354042 -0.146702,18.574334 V 85.546278 H 20.489181 14.816667 Z M 76.431953,30.360011 v 27.593122 27.593121 l 13.741175,-0.0037 c 14.286342,-0.0037 16.070152,-0.08609 19.134812,-0.880221 4.56469,-1.182834 8.58995,-4.362991 10.16261,-8.028923 1.20741,-2.814492 1.52924,-7.075388 0.77249,-10.232134 -0.97044,-4.048085 -3.80648,-7.386357 -7.57851,-8.920988 l -1.06322,-0.43247 1.09684,-0.618897 c 2.48865,-1.404502 4.66011,-4.501639 5.29964,-7.558255 0.42923,-2.051457 0.37741,-5.163844 -0.1192,-7.150996 -0.65797,-2.632834 -1.72529,-4.50133 -3.68209,-6.446905 -2.27401,-2.260991 -4.45278,-3.393022 -8.33952,-4.332319 -1.68703,-0.407703 -2.2228,-0.425004 -15.586052,-0.501231 z m 18.711884,9.842078 c 2.95878,-0.0079 5.318383,0.0539 6.032013,0.163131 3.7205,0.56938 5.80091,2.711775 5.84711,6.021311 0.0313,2.245075 -0.33019,3.2494 -1.64468,4.568419 -0.89367,0.896758 -1.35914,1.191734 -2.45689,1.557189 -1.29407,0.430805 -1.65711,0.453538 -8.157682,0.507728 -5.791468,0.04828 -6.819422,0.01427 -6.911848,-0.226548 C 87.7922,52.637714 87.77363,49.75509 87.8106,46.387291 l 0.06728,-6.123317 5.964388,-0.05426 c 0.444092,-0.0037 0.878928,-0.0067 1.301609,-0.0077 z m -7.36686,22.431015 7.873059,0.07105 c 7.357174,0.06661 7.952514,0.09799 9.086424,0.47946 1.42724,0.480154 3.00486,1.580395 3.56404,2.48516 0.63853,1.03315 1.05609,2.98339 0.91918,4.293352 -0.29944,2.864763 -2.08531,4.820148 -5.01655,5.492946 -0.97426,0.223621 -2.9995,0.304174 -8.765123,0.349566 -4.124109,0.03246 -7.53493,0.02262 -7.579657,-0.02217 -0.04466,-0.04481 -0.08137,-3.021729 -0.08137,-6.61538 z"
       inkscape:label="Logo" /></g></svg>
