<?xml version="1.0" encoding="UTF-8" standalone="no"?>
<!-- Created with Inkscape (http://www.inkscape.org/) -->

<svg
   width="37.562408mm"
   height="42.590195mm"
   viewBox="0 0 37.562408 42.590195"
   version="1.1"
   id="svg5"
   xml:space="preserve"
   inkscape:version="1.2.2 (b0a8486541, 2022-12-01)"
   sodipodi:docname="icons.svg"
   xmlns:inkscape="http://www.inkscape.org/namespaces/inkscape"
   xmlns:sodipodi="http://sodipodi.sourceforge.net/DTD/sodipodi-0.dtd"
   xmlns="http://www.w3.org/2000/svg"
   xmlns:svg="http://www.w3.org/2000/svg"><sodipodi:namedview
     id="namedview7"
     pagecolor="#ffffff"
     bordercolor="#000000"
     borderopacity="0.25"
     inkscape:showpageshadow="2"
     inkscape:pageopacity="0.0"
     inkscape:pagecheckerboard="0"
     inkscape:deskcolor="#d1d1d1"
     inkscape:document-units="mm"
     showgrid="false"
     inkscape:zoom="0.5"
     inkscape:cx="382"
     inkscape:cy="434"
     inkscape:window-width="1920"
     inkscape:window-height="1008"
     inkscape:window-x="0"
     inkscape:window-y="0"
     inkscape:window-maximized="1"
     inkscape:current-layer="layer2" /><defs
     id="defs2" /><g
     inkscape:groupmode="layer"
     id="layer3"
     inkscape:label="Objects"
     transform="translate(52.944028,-183.89292)"><path
       style="fill:#429bdc;fill-opacity:1;stroke-width:0.264583"
       d="m -51.60041,226.12162 c -1.366876,-0.7576 -1.332612,-0.22331 -1.342663,-20.93701 -0.0085,-17.4446 0.03254,-19.38171 0.422078,-19.93784 0.916461,-1.30843 1.369628,-1.35384 13.510553,-1.35384 h 11.313167 l 6.157829,6.15782 6.157828,6.15783 v 14.23249 c 0,9.25552 -0.09527,14.41049 -0.272426,14.74151 -0.703421,1.31435 -0.625887,1.30894 -18.565995,1.29888 -13.393335,-0.007 -16.874694,-0.0796 -17.380371,-0.35984 z m 30.86098,-1.92209 2.976562,-0.16186 v -12.9129 -12.91289 l -5.153983,-0.0819 -5.153981,-0.0819 -0.694891,-0.69551 c -0.686562,-0.68717 -0.695762,-0.74744 -0.767194,-5.02708 -0.03977,-2.38237 -0.08668,-4.71853 -0.104251,-5.19147 l -0.03195,-0.85989 h -10.45104 -10.451041 v 19.04542 19.04543 l 13.427604,-0.002 c 7.385182,-0.001 14.767055,-0.0747 16.404165,-0.16369 z m -2.386664,-32.56552 -4.029481,-4.05884 -0.07374,3.7691 c -0.04056,2.07302 -0.01482,3.92263 0.05717,4.11028 0.100068,0.26076 1.066881,0.32903 4.10322,0.28974 l 3.972309,-0.0514 z"
       id="path381-6"
       inkscape:label="file" /></g></svg>
