<?xml version="1.0" encoding="UTF-8" standalone="no"?>
<!-- Created with Inkscape (http://www.inkscape.org/) -->

<svg
   width="35.454269mm"
   height="35.188595mm"
   viewBox="0 0 35.454269 35.188595"
   version="1.1"
   id="svg5"
   xml:space="preserve"
   inkscape:version="1.2.2 (b0a8486541, 2022-12-01)"
   sodipodi:docname="icons.svg"
   xmlns:inkscape="http://www.inkscape.org/namespaces/inkscape"
   xmlns:sodipodi="http://sodipodi.sourceforge.net/DTD/sodipodi-0.dtd"
   xmlns="http://www.w3.org/2000/svg"
   xmlns:svg="http://www.w3.org/2000/svg"><sodipodi:namedview
     id="namedview7"
     pagecolor="#ffffff"
     bordercolor="#000000"
     borderopacity="0.25"
     inkscape:showpageshadow="2"
     inkscape:pageopacity="0.0"
     inkscape:pagecheckerboard="0"
     inkscape:deskcolor="#d1d1d1"
     inkscape:document-units="mm"
     showgrid="false"
     inkscape:zoom="0.52787981"
     inkscape:cx="498.21947"
     inkscape:cy="448.96583"
     inkscape:window-width="1920"
     inkscape:window-height="1008"
     inkscape:window-x="0"
     inkscape:window-y="0"
     inkscape:window-maximized="1"
     inkscape:current-layer="layer1" /><defs
     id="defs2" /><g
     inkscape:label="Layer 1"
     inkscape:groupmode="layer"
     id="layer1"
     transform="translate(-1.4399033,-36.564029)"><path
       id="path401"
       style="fill:#429bdc;fill-opacity:1;stroke-width:0.264583"
       d="M 2.8573815,71.490265 C 1.4004058,70.902303 1.4400086,71.388234 1.4400086,54.098957 c 0,-15.69971 0.00841,-15.956834 0.5397315,-16.488149 0.2968545,-0.296855 0.8403854,-0.654043 1.2078493,-0.79375 0.3992086,-0.151779 6.8643206,-0.253622 16.0628716,-0.253029 14.919714,0.0011 15.421493,0.0173 16.261246,0.529288 0.476568,0.290563 0.982583,0.833652 1.124479,1.20686 0.156927,0.412755 0.257988,6.745274 0.257988,16.165919 v 15.487358 l -0.899584,0.899583 -0.899583,0.899584 -15.835312,-0.01678 C 10.550274,71.726612 3.1692326,71.616109 2.8573815,71.490262 Z M 34.512924,54.15783 V 38.944289 H 19.034799 3.5566752 V 54.15783 69.371371 H 19.034799 34.512924 Z m -22.553916,4.678648 c -4.2655699,-4.26557 -4.553643,-4.791017 -3.2072764,-5.85007 0.3834263,-0.301603 0.8597133,-0.54837 1.0584127,-0.54837 0.1986997,0 1.7329017,1.398985 3.4093357,3.108854 l 3.048064,3.108854 0.854461,-0.972984 c 0.469953,-0.535141 3.175315,-3.422406 6.011915,-6.416145 5.44277,-5.744284 5.941163,-6.098781 6.972371,-4.959308 0.987499,1.091174 0.71355,1.479423 -6.314585,8.949259 -3.713858,3.947265 -7.017028,7.246027 -7.340375,7.330585 -0.48868,0.127794 -1.246899,-0.505251 -4.492323,-3.750675 z"
       inkscape:label="select_all" /></g></svg>
