<?xml version="1.0" encoding="UTF-8" standalone="no"?>
<!-- Created with Inkscape (http://www.inkscape.org/) -->

<svg
   width="44.908001mm"
   height="46.355255mm"
   viewBox="0 0 44.908001 46.355255"
   version="1.1"
   id="svg5"
   xml:space="preserve"
   inkscape:version="1.2.2 (b0a8486541, 2022-12-01)"
   sodipodi:docname="all_icons.svg"
   xmlns:inkscape="http://www.inkscape.org/namespaces/inkscape"
   xmlns:sodipodi="http://sodipodi.sourceforge.net/DTD/sodipodi-0.dtd"
   xmlns="http://www.w3.org/2000/svg"
   xmlns:svg="http://www.w3.org/2000/svg"><sodipodi:namedview
     id="namedview7"
     pagecolor="#ffffff"
     bordercolor="#000000"
     borderopacity="0.25"
     inkscape:showpageshadow="2"
     inkscape:pageopacity="0.0"
     inkscape:pagecheckerboard="0"
     inkscape:deskcolor="#d1d1d1"
     inkscape:document-units="mm"
     showgrid="false"
     inkscape:zoom="0.5"
     inkscape:cx="382"
     inkscape:cy="434"
     inkscape:window-width="1920"
     inkscape:window-height="1008"
     inkscape:window-x="0"
     inkscape:window-y="0"
     inkscape:window-maximized="1"
     inkscape:current-layer="layer2" /><defs
     id="defs2" /><g
     inkscape:groupmode="layer"
     id="layer2"
     inkscape:label="Outlines"
     transform="translate(9.7854483,-183.854)"><path
       id="rect1930-1-3"
       style="fill:#6eb2e4;fill-opacity:1;stroke-width:0.264583"
       d="m -12.265104,173.50271 c -4.43199,0 -8.00002,3.56803 -8.00002,8.00003 v 51.73327 c 0,4.432 3.56803,8.00003 8.00002,8.00003 h 51.733283 c 4.432,0 8.00003,-3.56803 8.00003,-8.00003 v -51.73327 c 0,-4.432 -3.56803,-8.00003 -8.00003,-8.00003 z m 0.46303,2.4629 h 50.807233 c 3.324,0 6.00015,2.67615 6.00015,6.00015 v 50.80723 c 0,3.324 -2.67615,6.00015 -6.00015,6.00015 h -50.807233 c -3.324,0 -6.00015,-2.67615 -6.00015,-6.00015 v -50.80723 c 0,-3.324 2.67615,-6.00015 6.00015,-6.00015 z"
       inkscape:label="Outline"
       inkscape:export-filename="boxed_up.svg"
       inkscape:export-xdpi="9"
       inkscape:export-ydpi="9" /></g><g
     inkscape:groupmode="layer"
     id="layer3"
     inkscape:label="Objects"
     transform="translate(9.7854483,-183.854)"><path
       style="fill:#429bdc;fill-opacity:1;stroke-width:0.0875596"
       d="m 26.662624,230.12807 c -1.579969,-0.23153 -3.416184,-1.31344 -4.439327,-2.61573 -1.328905,-1.69148 -1.821828,-3.59989 -1.524489,-5.90231 0.02168,-0.16806 -0.215265,-0.29418 -7.50999,-3.99705 -4.9702676,-2.52297 -8.899135,-4.52426 -9.5832213,-4.88154 L 3.0410196,212.43659 2.5111,212.95594 c -0.8962558,0.87836 -2.09037659,1.5361 -3.37562418,1.85937 -0.29958392,0.0754 -0.94481952,0.12004 -1.70740712,0.11828 -1.028117,-0.002 -1.3317636,-0.0355 -1.8825326,-0.20537 -2.1122986,-0.65143 -3.7440068,-2.05106 -4.6511581,-3.98964 -0.4346535,-0.92879 -0.6090347,-1.66852 -0.6617264,-2.80695 -0.041062,-0.88617 -0.019273,-1.1731 0.1387047,-1.83233 0.661103,-2.75834 2.6452081,-4.79851 5.3359569,-5.48668 0.9992964,-0.25558 2.7187706,-0.25322 3.66744453,0.005 0.82665686,0.22503 1.80489617,0.70115 2.50837507,1.22083 l 0.4858784,0.35895 0.5941203,-0.31786 c 0.3267623,-0.17483 0.8305224,-0.44576 1.119474,-0.60207 0.2889515,-0.15631 1.2345922,-0.64945 2.1014361,-1.09587 0.8668436,-0.44641 1.7336763,-0.90044 1.9263107,-1.00893 0.1926344,-0.10851 1.276181,-0.67941 2.4078987,-1.26872 1.131703,-0.58931 2.491072,-1.2974 3.020804,-1.57353 4.355092,-2.27022 5.794024,-3.01463 6.455596,-3.33964 l 0.764221,-0.37546 -0.06373,-0.35358 c -0.130282,-0.72273 -0.05627,-2.24522 0.146929,-3.02061 0.373672,-1.4262 1.280222,-2.83851 2.433038,-3.79046 0.651313,-0.53782 1.804075,-1.13046 2.697441,-1.38676 0.888735,-0.25498 2.554366,-0.2821 3.502394,-0.057 3.325704,0.78954 5.647608,3.68238 5.647608,7.03633 0,3.44855 -2.35471,6.36823 -5.778943,7.1655 -0.889938,0.20723 -2.269838,0.17554 -3.256487,-0.0748 -1.3792,-0.34987 -2.238662,-0.85879 -3.483846,-2.06293 l -0.567355,-0.54867 -0.789811,0.40023 c -0.434401,0.22014 -2.188588,1.13348 -3.898184,2.02965 -1.709609,0.89618 -3.758507,1.9676 -4.553115,2.38095 -0.794604,0.41335 -2.429783,1.27098 -3.6337276,1.90588 -1.203943,0.63486 -2.7916327,1.46618 -3.528192,1.84735 -1.1610513,0.60084 -1.3324096,0.71634 -1.2881493,0.86816 0.4663652,1.59968 0.5613465,2.59688 0.3627116,3.80794 -0.075009,0.45702 -0.1082967,0.85769 -0.074133,0.89039 0.060445,0.0578 4.0461322,2.09855 10.6569143,5.45662 4.24295,2.15527 6.06278,3.09297 6.422931,3.30957 l 0.293745,0.17665 0.471261,-0.52905 c 0.884648,-0.99311 2.243119,-1.83272 3.538124,-2.18671 0.427484,-0.11685 0.89607,-0.15557 1.882544,-0.15557 1.408251,0 1.976848,0.11518 3.108363,0.62971 1.288348,0.58581 2.647936,1.92663 3.325002,3.2791 0.619766,1.238 0.83002,2.23015 0.764297,3.60653 -0.05891,1.23323 -0.239884,1.94171 -0.762468,2.98449 -1.402458,2.79855 -4.490367,4.36991 -7.671429,3.90379 z m 2.856087,-2.89462 c 0.726276,-0.30798 1.130785,-0.58387 1.685243,-1.14928 2.418222,-2.46605 1.234779,-6.77636 -2.099685,-7.64738 -2.62381,-0.68539 -5.209121,0.92031 -5.774607,3.58652 -0.467887,2.20599 0.85597,4.52327 3.009626,5.26807 0.52461,0.18143 0.722907,0.20262 1.64713,0.1763 0.859648,-0.0246 1.138285,-0.0671 1.532293,-0.23423 z M -1.0899102,212.09297 c 0.8112061,-0.27911 1.32733969,-0.6073 1.91919324,-1.22035 1.78693796,-1.85093 1.77956846,-4.62836 -0.0173006,-6.51621 -0.91781661,-0.96428 -2.61897114,-1.51897 -3.95458934,-1.28944 -2.3500583,0.40386 -3.9447119,2.20016 -3.968791,4.47065 -0.014783,1.39133 0.4568491,2.56108 1.4005845,3.47397 1.2362567,1.19584 3.0526724,1.62092 4.6208927,1.08138 z M 28.942088,195.54385 c 0.920827,-0.23551 1.477093,-0.55125 2.162812,-1.22763 1.175855,-1.15984 1.635083,-2.76173 1.254565,-4.37622 -0.293266,-1.24427 -1.275282,-2.46251 -2.433246,-3.01852 -0.781543,-0.37528 -1.236048,-0.48118 -2.071139,-0.48259 -1.301408,-0.002 -2.272662,0.4145 -3.241901,1.39081 -0.757538,0.76305 -1.083372,1.35948 -1.289004,2.35951 -0.569899,2.77154 1.63216,5.47617 4.495001,5.52088 0.245129,0.004 0.750445,-0.071 1.122912,-0.16624 z"
       id="path388"
       inkscape:label="share" /></g></svg>
