<?xml version="1.0" encoding="UTF-8" standalone="no"?>
<!-- Created with Inkscape (http://www.inkscape.org/) -->

<svg
   width="37.562405mm"
   height="42.590187mm"
   viewBox="0 0 37.562405 42.590187"
   version="1.1"
   id="svg5"
   xml:space="preserve"
   inkscape:version="1.2.2 (b0a8486541, 2022-12-01)"
   sodipodi:docname="icons.svg"
   xmlns:inkscape="http://www.inkscape.org/namespaces/inkscape"
   xmlns:sodipodi="http://sodipodi.sourceforge.net/DTD/sodipodi-0.dtd"
   xmlns="http://www.w3.org/2000/svg"
   xmlns:svg="http://www.w3.org/2000/svg"><sodipodi:namedview
     id="namedview7"
     pagecolor="#ffffff"
     bordercolor="#000000"
     borderopacity="0.25"
     inkscape:showpageshadow="2"
     inkscape:pageopacity="0.0"
     inkscape:pagecheckerboard="0"
     inkscape:deskcolor="#d1d1d1"
     inkscape:document-units="mm"
     showgrid="false"
     inkscape:zoom="0.52787981"
     inkscape:cx="498.21947"
     inkscape:cy="448.96583"
     inkscape:window-width="1920"
     inkscape:window-height="1008"
     inkscape:window-x="0"
     inkscape:window-y="0"
     inkscape:window-maximized="1"
     inkscape:current-layer="layer1" /><defs
     id="defs2" /><g
     inkscape:label="Layer 1"
     inkscape:groupmode="layer"
     id="layer1"
     transform="translate(0.40364681,-96.094289)"><path
       id="path381"
       style="fill:#429bdc;fill-opacity:1;stroke-width:0.264583"
       d="m 0.93996468,138.32297 c -1.36687606,-0.7576 -1.33261279,-0.22331 -1.34266378,-20.937 C -0.4111631,99.941362 -0.3701559,98.004265 0.01937956,97.448125 0.93583982,96.139697 1.3890076,96.094286 13.529932,96.094286 h 11.313167 l 6.15783,6.157824 6.157828,6.15783 v 14.23249 c 0,9.25552 -0.09527,14.41048 -0.272426,14.74151 -0.703421,1.31435 -0.625887,1.30893 -18.565996,1.29888 -13.3933352,-0.007 -16.8746934,-0.0796 -17.38037032,-0.35985 z m 30.86098032,-1.92209 2.976562,-0.16186 v -12.9129 -12.91289 l -5.153983,-0.0819 -5.153982,-0.0819 -0.694891,-0.69551 c -0.686562,-0.68717 -0.695762,-0.74744 -0.767194,-5.02708 -0.03977,-2.38237 -0.08668,-4.718526 -0.104251,-5.191468 l -0.03195,-0.859896 H 12.420216 1.9691753 v 19.045424 19.04543 l 13.4276037,-0.002 c 7.385182,-0.001 14.767056,-0.0747 16.404166,-0.16369 z m -2.386664,-32.56551 -4.029482,-4.058851 -0.07374,3.769111 c -0.04056,2.07301 -0.01482,3.92263 0.05717,4.11027 0.100068,0.26077 1.066882,0.32904 4.103221,0.28974 l 3.972309,-0.0514 z m -14.471969,31.03068 c -0.225145,-0.27128 -0.310687,-1.64257 -0.28683,-4.59801 0.03877,-4.8022 0.175422,-4.54042 -2.370298,-4.54042 -1.62079,0 -2.3852481,-0.41124 -2.3713865,-1.27567 0.00839,-0.52252 7.7652055,-9.8616 8.4722835,-10.20047 0.93323,-0.44726 1.727536,0.0817 3.611729,2.40509 1.036645,1.2783 2.788346,3.42433 3.892669,4.76897 2.954565,3.59751 2.713783,4.48525 -1.233284,4.547 l -1.256771,0.0197 v 4.21444 c 0,3.47852 -0.0726,4.28703 -0.415774,4.6302 -0.58938,0.58939 -7.556436,0.61469 -8.042338,0.0292 z m 6.076862,-6.59249 c 0,-3.18982 0.08904,-4.40713 0.337447,-4.61329 0.185598,-0.15403 0.888156,-0.31744 1.561243,-0.36312 l 1.223796,-0.0831 -1.600467,-1.98438 c -0.880256,-1.0914 -2.034247,-2.49357 -2.564421,-3.11593 l -0.963954,-1.13156 -2.556701,3.11593 -2.556703,3.11594 1.289381,0.0792 c 0.738648,0.0454 1.430187,0.24889 1.619041,0.47645 0.238292,0.28712 0.314267,1.56683 0.274119,4.61712 l -0.05554,4.21991 h 1.996379 1.996381 z"
       inkscape:label="upload_file" /></g></svg>
